<?xml version="1.0" standalone="no"?>
<!DOCTYPE svg PUBLIC "-//W3C//DTD SVG 1.1//EN" "http://www.w3.org/Graphics/SVG/1.1/DTD/svg11.dtd" >
<svg xmlns="http://www.w3.org/2000/svg" xmlns:xlink="http://www.w3.org/1999/xlink" version="1.1">
<metadata>
Created by FontForge 20190801 at Mon Oct 14 22:50:12 2019
 By Jimmy Wärting
Copyright 2019 The Tomorrow Project Authors (https://github.com/MonicaRizzolli/Tomorrow)
</metadata>
<defs>
<font id="Tomorrow-Italic" horiz-adv-x="694" >
  <font-face 
    font-family="Tomorrow"
    font-weight="400"
    font-style="italic"
    font-stretch="normal"
    units-per-em="1000"
    panose-1="0 0 0 0 0 0 0 0 0 0"
    ascent="800"
    descent="-200"
    x-height="523"
    cap-height="737"
    bbox="-379 -232 1434 1168"
    underline-thickness="50"
    underline-position="-125"
    slope="-10"
    unicode-range="U+000D-FB02"
  />
<missing-glyph horiz-adv-x="688" 
d="M266 362l28 161h74l-28 -161h-74zM481 362l28 161h74l-29 -161h-73zM95 76l12 71l116 100h334l81 -100l-13 -71h-80l7 43l-44 58h-259l-66 -59l-7 -42h-81z" />
    <glyph glyph-name=".notdef" horiz-adv-x="688" 
d="M266 362l28 161h74l-28 -161h-74zM481 362l28 161h74l-29 -161h-73zM95 76l12 71l116 100h334l81 -100l-13 -71h-80l7 43l-44 58h-259l-66 -59l-7 -42h-81z" />
    <glyph glyph-name="CR" unicode="&#xd;" horiz-adv-x="600" 
 />
    <glyph glyph-name="space" unicode=" " horiz-adv-x="222" 
 />
    <glyph glyph-name="A" unicode="A" horiz-adv-x="667" 
d="M13 0l379 737h134l127 -737h-92l-30 192h-320l-95 -192h-103zM251 272h268l-59 379h-20z" />
    <glyph glyph-name="Aacute" unicode="&#xc1;" horiz-adv-x="667" 
d="M428 794l122 149h118l-157 -149h-83zM13 0l379 737h134l127 -737h-92l-30 192h-320l-95 -192h-103zM251 272h268l-59 379h-20z" />
    <glyph glyph-name="Abreve" unicode="&#x102;" horiz-adv-x="667" 
d="M394 794l-58 69l12 65h60l-8 -49l21 -26h103l30 26l9 49h61l-14 -79l-65 -55h-151zM13 0l379 737h134l127 -737h-92l-30 192h-320l-95 -192h-103zM251 272h268l-59 379h-20z" />
    <glyph glyph-name="uni1EAE" unicode="&#x1eae;" horiz-adv-x="667" 
d="M449 956l122 149h118l-157 -149h-83zM394 794l-58 69l12 65h60l-8 -49l21 -26h103l30 26l9 49h61l-14 -79l-65 -55h-151zM13 0l379 737h134l127 -737h-92l-30 192h-320l-95 -192h-103zM251 272h268l-59 379h-20z" />
    <glyph glyph-name="uni1EB6" unicode="&#x1eb6;" horiz-adv-x="667" 
d="M394 794l-58 69l12 65h60l-8 -49l21 -26h103l30 26l9 49h61l-14 -79l-65 -55h-151zM13 0l379 737h134l127 -737h-92l-30 192h-320l-95 -192h-103zM251 272h268l-59 379h-20zM269 -175l21 118h88l-21 -118h-88z" />
    <glyph glyph-name="uni1EB0" unicode="&#x1eb0;" horiz-adv-x="667" 
d="M446 955l-103 149h105l70 -149h-72zM394 794l-58 69l12 65h60l-8 -49l21 -26h103l30 26l9 49h61l-14 -79l-65 -55h-151zM13 0l379 737h134l127 -737h-92l-30 192h-320l-95 -192h-103zM251 272h268l-59 379h-20z" />
    <glyph glyph-name="uni1EB2" unicode="&#x1eb2;" horiz-adv-x="667" 
d="M459 956l10 58l76 57l4 24l-9 13h-39l-41 -35l-38 46l51 43h103l41 -52l-12 -69l-81 -58l-4 -27h-61zM394 794l-58 69l12 65h60l-8 -49l21 -26h103l30 26l9 49h61l-14 -79l-65 -55h-151zM13 0l379 737h134l127 -737h-92l-30 192h-320l-95 -192h-103zM251 272h268l-59 379
h-20z" />
    <glyph glyph-name="uni1EB4" unicode="&#x1eb4;" horiz-adv-x="667" 
d="M509 956l-60 69h-41l-43 -36l-6 -31h-53l13 70l63 55h102l59 -70h37l43 36l6 32h53l-13 -71l-63 -54h-97zM394 794l-58 69l12 65h60l-8 -49l21 -26h103l30 26l9 49h61l-14 -79l-65 -55h-151zM13 0l379 737h134l127 -737h-92l-30 192h-320l-95 -192h-103zM251 272h268
l-59 379h-20z" />
    <glyph glyph-name="Acircumflex" unicode="&#xc2;" horiz-adv-x="667" 
d="M309 794l125 141h101l84 -141h-71l-62 85h-6l-92 -85h-79zM13 0l379 737h134l127 -737h-92l-30 192h-320l-95 -192h-103zM251 272h268l-59 379h-20z" />
    <glyph glyph-name="uni1EA4" unicode="&#x1ea4;" horiz-adv-x="667" 
d="M616 871l122 149h118l-157 -149h-83zM309 794l125 141h101l84 -141h-71l-62 85h-6l-92 -85h-79zM13 0l379 737h134l127 -737h-92l-30 192h-320l-95 -192h-103zM251 272h268l-59 379h-20z" />
    <glyph glyph-name="uni1EAC" unicode="&#x1eac;" horiz-adv-x="667" 
d="M309 794l125 141h101l84 -141h-71l-62 85h-6l-92 -85h-79zM13 0l379 737h134l127 -737h-92l-30 192h-320l-95 -192h-103zM251 272h268l-59 379h-20zM269 -175l21 118h88l-21 -118h-88z" />
    <glyph glyph-name="uni1EA6" unicode="&#x1ea6;" horiz-adv-x="667" 
d="M260 871l-103 149h106l69 -149h-72zM309 794l125 141h101l84 -141h-71l-62 85h-6l-92 -85h-79zM13 0l379 737h134l127 -737h-92l-30 192h-320l-95 -192h-103zM251 272h268l-59 379h-20z" />
    <glyph glyph-name="uni1EA8" unicode="&#x1ea8;" horiz-adv-x="667" 
d="M603 871l10 58l76 57l4 25l-10 12h-39l-40 -35l-38 46l51 44h102l42 -52l-12 -70l-81 -58l-5 -27h-60zM309 794l125 141h101l84 -141h-71l-62 85h-6l-92 -85h-79zM13 0l379 737h134l127 -737h-92l-30 192h-320l-95 -192h-103zM251 272h268l-59 379h-20z" />
    <glyph glyph-name="uni1EAA" unicode="&#x1eaa;" horiz-adv-x="667" 
d="M511 962l-59 70h-41l-43 -36l-6 -32h-54l14 71l63 54h101l60 -69h37l43 36l6 31h53l-13 -71l-63 -54h-98zM309 794l125 141h101l84 -141h-71l-62 85h-6l-92 -85h-79zM13 0l379 737h134l127 -737h-92l-30 192h-320l-95 -192h-103zM251 272h268l-59 379h-20z" />
    <glyph glyph-name="uni0200" unicode="&#x200;" horiz-adv-x="667" 
d="M334 794l-103 149h106l69 -149h-72zM501 794l-104 149h106l69 -149h-71zM13 0l379 737h134l127 -737h-92l-30 192h-320l-95 -192h-103zM251 272h268l-59 379h-20z" />
    <glyph glyph-name="Adieresis" unicode="&#xc4;" horiz-adv-x="667" 
d="M291 794l20 118h88l-20 -118h-88zM556 794l21 118h88l-21 -118h-88zM13 0l379 737h134l127 -737h-92l-30 192h-320l-95 -192h-103zM251 272h268l-59 379h-20z" />
    <glyph glyph-name="uni1EA0" unicode="&#x1ea0;" horiz-adv-x="667" 
d="M13 0l379 737h134l127 -737h-92l-30 192h-320l-95 -192h-103zM251 272h268l-59 379h-20zM269 -175l21 118h88l-21 -118h-88z" />
    <glyph glyph-name="Agrave" unicode="&#xc0;" horiz-adv-x="667" 
d="M414 794l-103 149h106l69 -149h-72zM13 0l379 737h134l127 -737h-92l-30 192h-320l-95 -192h-103zM251 272h268l-59 379h-20z" />
    <glyph glyph-name="uni1EA2" unicode="&#x1ea2;" horiz-adv-x="667" 
d="M435 794l11 59l75 56l5 25l-10 12h-39l-40 -35l-38 46l51 44h102l42 -52l-12 -69l-81 -58l-5 -28h-61zM13 0l379 737h134l127 -737h-92l-30 192h-320l-95 -192h-103zM251 272h268l-59 379h-20z" />
    <glyph glyph-name="uni0202" unicode="&#x202;" horiz-adv-x="667" 
d="M329 794l14 79l65 55h151l58 -69l-12 -65h-60l8 50l-21 25h-103l-30 -25l-9 -50h-61zM13 0l379 737h134l127 -737h-92l-30 192h-320l-95 -192h-103zM251 272h268l-59 379h-20z" />
    <glyph glyph-name="Amacron" unicode="&#x100;" horiz-adv-x="667" 
d="M292 794l12 67h353l-12 -67h-353zM13 0l379 737h134l127 -737h-92l-30 192h-320l-95 -192h-103zM251 272h268l-59 379h-20z" />
    <glyph glyph-name="Aogonek" unicode="&#x104;" horiz-adv-x="667" 
d="M551 -161l-54 66l10 60l54 35l-30 192h-320l-95 -192h-103l379 737h134l127 -737h-19l-71 -47l-5 -26l21 -26h28l-11 -62h-45zM251 272h268l-59 379h-20z" />
    <glyph glyph-name="Aring" unicode="&#xc5;" horiz-adv-x="667" 
d="M419 794l-56 68l14 75l63 54h97l56 -68l-13 -75l-64 -54h-97zM451 844h37l35 30l6 37l-24 30h-37l-35 -30l-6 -37zM13 0l379 737h134l127 -737h-92l-30 192h-320l-95 -192h-103zM251 272h268l-59 379h-20z" />
    <glyph glyph-name="Aringacute" unicode="&#x1fa;" horiz-adv-x="667" 
d="M455 1019l122 149h119l-157 -149h-84zM419 794l-56 68l14 75l63 54h97l56 -68l-13 -75l-64 -54h-97zM451 844h37l35 30l6 37l-24 30h-37l-35 -30l-6 -37zM13 0l379 737h134l127 -737h-92l-30 192h-320l-95 -192h-103zM251 272h268l-59 379h-20z" />
    <glyph glyph-name="Atilde" unicode="&#xc3;" horiz-adv-x="667" 
d="M497 794l-60 70h-40l-43 -36l-7 -32h-53l13 71l63 54h102l59 -69h37l43 36l7 31h53l-14 -71l-63 -54h-97zM13 0l379 737h134l127 -737h-92l-30 192h-320l-95 -192h-103zM251 272h268l-59 379h-20z" />
    <glyph glyph-name="AE" unicode="&#xc6;" horiz-adv-x="961" 
d="M13 0l379 737h648l-15 -84h-485l39 -224h365l-15 -83h-336l46 -262h286l-15 -84h-349l-30 192h-320l-95 -192h-103zM251 272h268l-59 379h-20z" />
    <glyph glyph-name="AEacute" unicode="&#x1fc;" horiz-adv-x="961" 
d="M428 794l122 149h118l-157 -149h-83zM13 0l379 737h648l-15 -84h-485l39 -224h365l-15 -83h-336l46 -262h286l-15 -84h-349l-30 192h-320l-95 -192h-103zM251 272h268l-59 379h-20z" />
    <glyph glyph-name="B" unicode="B" horiz-adv-x="690" 
d="M87 0l130 737h385l94 -115l-29 -163l-57 -62l69 -86l-36 -207l-122 -104h-434zM253 428h275l53 57l20 116l-44 56l-263 -1zM192 81h301l65 55l26 151l-47 60h-298z" />
    <glyph glyph-name="C" unicode="C" horiz-adv-x="646" 
d="M530 0h-347l-94 115l93 528l110 94h339l86 -105l-65 -56l-66 80h-256l-65 -55l-81 -465l44 -55h264l96 81l54 -67z" />
    <glyph glyph-name="Cacute" unicode="&#x106;" horiz-adv-x="646" 
d="M431 794l122 149h118l-157 -149h-83zM530 0h-347l-94 115l93 528l110 94h339l86 -105l-65 -56l-66 80h-256l-65 -55l-81 -465l44 -55h264l96 81l54 -67z" />
    <glyph glyph-name="Ccaron" unicode="&#x10c;" horiz-adv-x="646" 
d="M417 794l-84 141h72l62 -84h6l92 84h78l-124 -141h-102zM530 0h-347l-94 115l93 528l110 94h339l86 -105l-65 -56l-66 80h-256l-65 -55l-81 -465l44 -55h264l96 81l54 -67z" />
    <glyph glyph-name="Ccedilla" unicode="&#xc7;" horiz-adv-x="646" 
d="M271 -128l48 128h-136l-94 115l93 528l110 94h339l86 -105l-65 -56l-66 80h-256l-65 -55l-81 -465l44 -55h264l96 81l54 -67l-112 -95h-129l-63 -128h-67z" />
    <glyph glyph-name="Ccircumflex" unicode="&#x108;" horiz-adv-x="646" 
d="M312 794l125 141h101l84 -141h-71l-62 85h-6l-92 -85h-79zM530 0h-347l-94 115l93 528l110 94h339l86 -105l-65 -56l-66 80h-256l-65 -55l-81 -465l44 -55h264l96 81l54 -67z" />
    <glyph glyph-name="Cdotaccent" unicode="&#x10a;" horiz-adv-x="646" 
d="M428 794l20 118h88l-20 -118h-88zM530 0h-347l-94 115l93 528l110 94h339l86 -105l-65 -56l-66 80h-256l-65 -55l-81 -465l44 -55h264l96 81l54 -67z" />
    <glyph glyph-name="D" unicode="D" horiz-adv-x="705" 
d="M498 0h-411l130 737h390l134 -165l-76 -428zM192 81h268l122 105l64 365l-84 105h-268z" />
    <glyph glyph-name="uni01C4" unicode="&#x1c4;" horiz-adv-x="1380" 
d="M1149 794l-84 141h71l62 -84h6l92 84h79l-125 -141h-101zM498 0h-411l130 737h390l134 -165l-76 -428zM789 0l18 104l481 527l4 22h-367l15 84h494l-17 -93l-491 -538l-4 -22h401l-15 -84h-519zM192 81h268l122 105l64 365l-84 105h-268z" />
    <glyph glyph-name="Eth" unicode="&#xd0;" horiz-adv-x="705" 
d="M498 0h-411l59 337h-72l13 74h72l58 326h390l134 -165l-76 -428zM192 81h268l122 105l64 365l-84 105h-268l-44 -245h137l-13 -74h-137z" />
    <glyph glyph-name="Dcaron" unicode="&#x10e;" horiz-adv-x="705" 
d="M410 794l-84 141h72l62 -84h6l92 84h78l-125 -141h-101zM498 0h-411l130 737h390l134 -165l-76 -428zM192 81h268l122 105l64 365l-84 105h-268z" />
    <glyph glyph-name="Dcroat" unicode="&#x110;" horiz-adv-x="705" 
d="M498 0h-411l59 337h-72l13 74h72l58 326h390l134 -165l-76 -428zM192 81h268l122 105l64 365l-84 105h-268l-44 -245h137l-13 -74h-137z" />
    <glyph glyph-name="uni01C5" unicode="&#x1c5;" horiz-adv-x="1292" 
d="M498 0h-411l130 737h390l134 -165l-76 -428zM1068 580l-84 141h72l62 -85h6l92 85h79l-125 -141h-102zM192 81h268l122 105l64 365l-84 105h-268zM801 0l15 90l390 359h-303l13 74h401l-17 -99l-378 -351h325l-13 -73h-433z" />
    <glyph glyph-name="E" unicode="E" horiz-adv-x="625" 
d="M87 0l130 737h486l-15 -84h-395l-39 -224h353l-15 -83h-353l-46 -262h395l-15 -84h-486z" />
    <glyph glyph-name="Eacute" unicode="&#xc9;" horiz-adv-x="625" 
d="M430 794l122 149h118l-157 -149h-83zM87 0l130 737h486l-15 -84h-395l-39 -224h353l-15 -83h-353l-46 -262h395l-15 -84h-486z" />
    <glyph glyph-name="Ebreve" unicode="&#x114;" horiz-adv-x="625" 
d="M396 794l-58 69l12 65h60l-8 -49l21 -26h103l30 26l9 49h61l-14 -79l-65 -55h-151zM87 0l130 737h486l-15 -84h-395l-39 -224h353l-15 -83h-353l-46 -262h395l-15 -84h-486z" />
    <glyph glyph-name="Ecaron" unicode="&#x11a;" horiz-adv-x="625" 
d="M416 794l-84 141h72l62 -84h6l92 84h79l-125 -141h-102zM87 0l130 737h486l-15 -84h-395l-39 -224h353l-15 -83h-353l-46 -262h395l-15 -84h-486z" />
    <glyph glyph-name="Ecircumflex" unicode="&#xca;" horiz-adv-x="625" 
d="M311 794l125 141h101l84 -141h-71l-62 85h-6l-92 -85h-79zM87 0l130 737h486l-15 -84h-395l-39 -224h353l-15 -83h-353l-46 -262h395l-15 -84h-486z" />
    <glyph glyph-name="uni1EBE" unicode="&#x1ebe;" horiz-adv-x="625" 
d="M618 871l122 149h118l-157 -149h-83zM311 794l125 141h101l84 -141h-71l-62 85h-6l-92 -85h-79zM87 0l130 737h486l-15 -84h-395l-39 -224h353l-15 -83h-353l-46 -262h395l-15 -84h-486z" />
    <glyph glyph-name="uni1EC6" unicode="&#x1ec6;" horiz-adv-x="625" 
d="M311 794l125 141h101l84 -141h-71l-62 85h-6l-92 -85h-79zM87 0l130 737h486l-15 -84h-395l-39 -224h353l-15 -83h-353l-46 -262h395l-15 -84h-486zM254 -175l21 118h88l-21 -118h-88z" />
    <glyph glyph-name="uni1EC0" unicode="&#x1ec0;" horiz-adv-x="625" 
d="M262 871l-103 149h106l69 -149h-72zM311 794l125 141h101l84 -141h-71l-62 85h-6l-92 -85h-79zM87 0l130 737h486l-15 -84h-395l-39 -224h353l-15 -83h-353l-46 -262h395l-15 -84h-486z" />
    <glyph glyph-name="uni1EC2" unicode="&#x1ec2;" horiz-adv-x="625" 
d="M605 871l10 58l76 57l4 25l-10 12h-39l-40 -35l-38 46l51 44h102l42 -52l-12 -70l-81 -58l-5 -27h-60zM311 794l125 141h101l84 -141h-71l-62 85h-6l-92 -85h-79zM87 0l130 737h486l-15 -84h-395l-39 -224h353l-15 -83h-353l-46 -262h395l-15 -84h-486z" />
    <glyph glyph-name="uni1EC4" unicode="&#x1ec4;" horiz-adv-x="625" 
d="M513 962l-59 70h-41l-43 -36l-6 -32h-54l14 71l63 54h101l60 -69h36l44 36l6 31h53l-14 -71l-62 -54h-98zM311 794l125 141h101l84 -141h-71l-62 85h-6l-92 -85h-79zM87 0l130 737h486l-15 -84h-395l-39 -224h353l-15 -83h-353l-46 -262h395l-15 -84h-486z" />
    <glyph glyph-name="uni0204" unicode="&#x204;" horiz-adv-x="625" 
d="M336 794l-103 149h106l69 -149h-72zM502 794l-103 149h106l69 -149h-72zM87 0l130 737h486l-15 -84h-395l-39 -224h353l-15 -83h-353l-46 -262h395l-15 -84h-486z" />
    <glyph glyph-name="Edieresis" unicode="&#xcb;" horiz-adv-x="625" 
d="M293 794l20 118h88l-20 -118h-88zM558 794l21 118h88l-21 -118h-88zM87 0l130 737h486l-15 -84h-395l-39 -224h353l-15 -83h-353l-46 -262h395l-15 -84h-486z" />
    <glyph glyph-name="Edotaccent" unicode="&#x116;" horiz-adv-x="625" 
d="M427 794l20 118h88l-20 -118h-88zM87 0l130 737h486l-15 -84h-395l-39 -224h353l-15 -83h-353l-46 -262h395l-15 -84h-486z" />
    <glyph glyph-name="uni1EB8" unicode="&#x1eb8;" horiz-adv-x="625" 
d="M87 0l130 737h486l-15 -84h-395l-39 -224h353l-15 -83h-353l-46 -262h395l-15 -84h-486zM254 -175l21 118h88l-21 -118h-88z" />
    <glyph glyph-name="Egrave" unicode="&#xc8;" horiz-adv-x="625" 
d="M416 794l-103 149h106l69 -149h-72zM87 0l130 737h486l-15 -84h-395l-39 -224h353l-15 -83h-353l-46 -262h395l-15 -84h-486z" />
    <glyph glyph-name="uni1EBA" unicode="&#x1eba;" horiz-adv-x="625" 
d="M437 794l11 59l75 56l5 25l-10 12h-39l-40 -35l-38 46l51 44h102l42 -52l-12 -69l-81 -58l-5 -28h-61zM87 0l130 737h486l-15 -84h-395l-39 -224h353l-15 -83h-353l-46 -262h395l-15 -84h-486z" />
    <glyph glyph-name="uni0206" unicode="&#x206;" horiz-adv-x="625" 
d="M331 794l14 79l65 55h151l58 -69l-12 -65h-60l8 50l-21 25h-103l-30 -25l-9 -50h-61zM87 0l130 737h486l-15 -84h-395l-39 -224h353l-15 -83h-353l-46 -262h395l-15 -84h-486z" />
    <glyph glyph-name="Emacron" unicode="&#x112;" horiz-adv-x="625" 
d="M294 794l12 67h353l-12 -67h-353zM87 0l130 737h486l-15 -84h-395l-39 -224h353l-15 -83h-353l-46 -262h395l-15 -84h-486z" />
    <glyph glyph-name="Eogonek" unicode="&#x118;" horiz-adv-x="625" 
d="M499 -161l-54 66l12 66l43 29h-413l130 737h486l-15 -84h-395l-39 -224h353l-15 -83h-353l-46 -262h395l-15 -84l-60 -40l-7 -34l21 -25h28l-10 -62h-46z" />
    <glyph glyph-name="uni1EBC" unicode="&#x1ebc;" horiz-adv-x="625" 
d="M499 794l-60 70h-40l-43 -36l-7 -32h-53l13 71l63 54h102l59 -69h37l43 36l7 31h53l-14 -71l-63 -54h-97zM87 0l130 737h486l-15 -84h-395l-39 -224h353l-15 -83h-353l-46 -262h395l-15 -84h-486z" />
    <glyph glyph-name="F" unicode="F" horiz-adv-x="577" 
d="M87 0l130 737h475l-15 -84h-384l-42 -238h337l-15 -83h-337l-58 -332h-91z" />
    <glyph glyph-name="G" unicode="G" horiz-adv-x="711" 
d="M183 0l-94 115l93 528l110 94h356l86 -105l-65 -56l-66 80h-273l-65 -55l-81 -465l44 -55h215l140 113l20 113h-169l14 80h246l-68 -387h-77l15 84l-105 -84h-276z" />
    <glyph glyph-name="Gbreve" unicode="&#x11e;" horiz-adv-x="711" 
d="M404 794l-58 69l12 65h60l-9 -49l21 -26h104l30 26l9 49h60l-14 -79l-65 -55h-150zM183 0l-94 115l93 528l110 94h356l86 -105l-65 -56l-66 80h-273l-65 -55l-81 -465l44 -55h215l140 113l20 113h-169l14 80h246l-68 -387h-77l15 84l-105 -84h-276z" />
    <glyph glyph-name="Gcaron" unicode="&#x1e6;" horiz-adv-x="711" 
d="M424 794l-84 141h72l62 -84h6l92 84h78l-124 -141h-102zM183 0l-94 115l93 528l110 94h356l86 -105l-65 -56l-66 80h-273l-65 -55l-81 -465l44 -55h215l140 113l20 113h-169l14 80h246l-68 -387h-77l15 84l-105 -84h-276z" />
    <glyph glyph-name="Gcircumflex" unicode="&#x11c;" horiz-adv-x="711" 
d="M319 794l125 141h101l84 -141h-71l-62 85h-6l-92 -85h-79zM183 0l-94 115l93 528l110 94h356l86 -105l-65 -56l-66 80h-273l-65 -55l-81 -465l44 -55h215l140 113l20 113h-169l14 80h246l-68 -387h-77l15 84l-105 -84h-276z" />
    <glyph glyph-name="uni0122" unicode="&#x122;" horiz-adv-x="711" 
d="M183 0l-94 115l93 528l110 94h356l86 -105l-65 -56l-66 80h-273l-65 -55l-81 -465l44 -55h215l140 113l20 113h-169l14 80h246l-68 -387h-77l15 84l-105 -84h-276zM207 -232l70 175h96l-112 -175h-54z" />
    <glyph glyph-name="Gdotaccent" unicode="&#x120;" horiz-adv-x="711" 
d="M434 794l21 118h88l-21 -118h-88zM183 0l-94 115l93 528l110 94h356l86 -105l-65 -56l-66 80h-273l-65 -55l-81 -465l44 -55h215l140 113l20 113h-169l14 80h246l-68 -387h-77l15 84l-105 -84h-276z" />
    <glyph glyph-name="H" unicode="H" horiz-adv-x="720" 
d="M87 0l130 737h91l-55 -309h365l55 309h91l-130 -737h-91l61 347h-365l-61 -347h-91z" />
    <glyph glyph-name="Hbar" unicode="&#x126;" horiz-adv-x="720" 
d="M87 0l96 547h-67l13 73h67l21 117h91l-21 -117h365l21 117h91l-21 -117h65l-13 -73h-65l-96 -547h-91l61 347h-365l-61 -347h-91zM253 428h365l21 119h-365z" />
    <glyph glyph-name="Hcircumflex" unicode="&#x124;" horiz-adv-x="720" 
d="M343 794l125 141h101l84 -141h-71l-62 85h-6l-92 -85h-79zM87 0l130 737h91l-55 -309h365l55 309h91l-130 -737h-91l61 347h-365l-61 -347h-91z" />
    <glyph glyph-name="I" unicode="I" horiz-adv-x="395" 
d="M62 0l14 84h91l100 569h-90l15 84h271l-15 -84h-90l-100 -569h90l-15 -84h-271z" />
    <glyph glyph-name="Iacute" unicode="&#xcd;" horiz-adv-x="395" 
d="M297 794l122 149h118l-157 -149h-83zM62 0l14 84h91l100 569h-90l15 84h271l-15 -84h-90l-100 -569h90l-15 -84h-271z" />
    <glyph glyph-name="Ibreve" unicode="&#x12c;" horiz-adv-x="395" 
d="M263 794l-58 69l12 65h60l-9 -49l21 -26h104l30 26l9 49h60l-14 -79l-65 -55h-150zM62 0l14 84h91l100 569h-90l15 84h271l-15 -84h-90l-100 -569h90l-15 -84h-271z" />
    <glyph glyph-name="Icircumflex" unicode="&#xce;" horiz-adv-x="395" 
d="M178 794l125 141h101l84 -141h-71l-62 85h-6l-92 -85h-79zM62 0l14 84h91l100 569h-90l15 84h271l-15 -84h-90l-100 -569h90l-15 -84h-271z" />
    <glyph glyph-name="uni0208" unicode="&#x208;" horiz-adv-x="395" 
d="M203 794l-103 149h106l69 -149h-72zM369 794l-103 149h106l69 -149h-72zM62 0l14 84h91l100 569h-90l15 84h271l-15 -84h-90l-100 -569h90l-15 -84h-271z" />
    <glyph glyph-name="Idieresis" unicode="&#xcf;" horiz-adv-x="395" 
d="M159 794l21 118h88l-21 -118h-88zM425 794l21 118h88l-21 -118h-88zM62 0l14 84h91l100 569h-90l15 84h271l-15 -84h-90l-100 -569h90l-15 -84h-271z" />
    <glyph glyph-name="Idotaccent" unicode="&#x130;" horiz-adv-x="395" 
d="M293 794l21 118h88l-21 -118h-88zM62 0l14 84h91l100 569h-90l15 84h271l-15 -84h-90l-100 -569h90l-15 -84h-271z" />
    <glyph glyph-name="uni1ECA" unicode="&#x1eca;" horiz-adv-x="395" 
d="M62 0l14 84h91l100 569h-90l15 84h271l-15 -84h-90l-100 -569h90l-15 -84h-271zM123 -175l21 118h88l-21 -118h-88z" />
    <glyph glyph-name="Igrave" unicode="&#xcc;" horiz-adv-x="395" 
d="M283 794l-103 149h106l69 -149h-72zM62 0l14 84h91l100 569h-90l15 84h271l-15 -84h-90l-100 -569h90l-15 -84h-271z" />
    <glyph glyph-name="uni1EC8" unicode="&#x1ec8;" horiz-adv-x="395" 
d="M304 794l11 59l75 56l5 25l-10 12h-39l-41 -35l-37 46l51 44h102l42 -52l-13 -69l-80 -58l-5 -28h-61zM62 0l14 84h91l100 569h-90l15 84h271l-15 -84h-90l-100 -569h90l-15 -84h-271z" />
    <glyph glyph-name="uni020A" unicode="&#x20a;" horiz-adv-x="395" 
d="M198 794l14 79l65 55h151l57 -69l-11 -65h-61l9 50l-21 25h-103l-30 -25l-9 -50h-61zM62 0l14 84h91l100 569h-90l15 84h271l-15 -84h-90l-100 -569h90l-15 -84h-271z" />
    <glyph glyph-name="Imacron" unicode="&#x12a;" horiz-adv-x="395" 
d="M161 794l12 67h353l-12 -67h-353zM62 0l14 84h91l100 569h-90l15 84h271l-15 -84h-90l-100 -569h90l-15 -84h-271z" />
    <glyph glyph-name="Iogonek" unicode="&#x12e;" horiz-adv-x="395" 
d="M259 -161l-54 66l12 66l43 29h-198l14 84h91l100 569h-90l15 84h271l-15 -84h-90l-100 -569h90l-15 -84l-60 -40l-6 -34l20 -25h29l-11 -62h-46z" />
    <glyph glyph-name="Itilde" unicode="&#x128;" horiz-adv-x="395" 
d="M366 794l-60 70h-41l-43 -36l-6 -32h-53l13 71l63 54h102l59 -69h37l43 36l6 31h53l-13 -71l-63 -54h-97zM62 0l14 84h91l100 569h-90l15 84h271l-15 -84h-90l-100 -569h90l-15 -84h-271z" />
    <glyph glyph-name="J" unicode="J" horiz-adv-x="577" 
d="M387 0h-232l-95 115l28 159h91l-24 -138l45 -55h149l65 55l106 601h91l-114 -643z" />
    <glyph glyph-name="Jcircumflex" unicode="&#x134;" horiz-adv-x="577" 
d="M414 794l125 141h101l84 -141h-71l-62 85h-6l-92 -85h-79zM387 0h-232l-95 115l28 159h91l-24 -138l45 -55h149l65 55l106 601h91l-114 -643z" />
    <glyph glyph-name="K" unicode="K" horiz-adv-x="656" 
d="M87 0l130 737h91l-69 -392l417 392h117l-343 -327l202 -410h-102l-170 343l-146 -140l-36 -203h-91z" />
    <glyph glyph-name="uni0136" unicode="&#x136;" horiz-adv-x="656" 
d="M87 0l130 737h91l-69 -392l417 392h117l-343 -327l202 -410h-102l-170 343l-146 -140l-36 -203h-91zM233 -232l70 175h96l-112 -175h-54z" />
    <glyph glyph-name="L" unicode="L" horiz-adv-x="559" 
d="M87 0l130 737h91l-115 -653h371l-15 -84h-462z" />
    <glyph glyph-name="uni01C7" unicode="&#x1c7;" horiz-adv-x="1160" 
d="M970 0h-232l-95 115l28 159h91l-24 -138l45 -55h149l65 55l106 601h91l-114 -643zM87 0l130 737h91l-115 -653h371l-15 -84h-462z" />
    <glyph glyph-name="Lacute" unicode="&#x139;" horiz-adv-x="559" 
d="M232 794l122 149h118l-157 -149h-83zM87 0l130 737h91l-115 -653h371l-15 -84h-462z" />
    <glyph glyph-name="Lcaron" unicode="&#x13d;" horiz-adv-x="559" 
d="M87 0l130 737h91l-115 -653h371l-15 -84h-462zM419 562l70 175h96l-112 -175h-54z" />
    <glyph glyph-name="uni013B" unicode="&#x13b;" horiz-adv-x="559" 
d="M87 0l130 737h91l-115 -653h371l-15 -84h-462zM191 -232l71 175h96l-113 -175h-54z" />
    <glyph glyph-name="Ldot" unicode="&#x13f;" horiz-adv-x="559" 
d="M87 0l130 737h91l-115 -653h371l-15 -84h-462zM408 331l20 118h88l-20 -118h-88z" />
    <glyph glyph-name="uni01C8" unicode="&#x1c8;" horiz-adv-x="831" 
d="M87 0l130 737h91l-115 -653h371l-15 -84h-462zM763 580l21 118h88l-21 -118h-88zM494 -187l13 73h87l55 49l104 588h88l-111 -630l-96 -80h-140z" />
    <glyph glyph-name="Lslash" unicode="&#x141;" horiz-adv-x="559" 
d="M87 0l54 306l-70 -29l17 97l70 28l59 335h91l-52 -295l186 76l-17 -97l-186 -75l-46 -262h371l-15 -84h-462z" />
    <glyph glyph-name="M" unicode="M" horiz-adv-x="887" 
d="M87 0l130 737h119l129 -587l335 587h131l-130 -737h-92l106 598l-346 -598h-51l-135 597l-105 -597h-91z" />
    <glyph glyph-name="N" unicode="N" horiz-adv-x="718" 
d="M87 0l130 737h117l230 -603l106 603h91l-130 -737h-108l-220 582h-22l-103 -582h-91z" />
    <glyph glyph-name="uni01CA" unicode="&#x1ca;" horiz-adv-x="1317" 
d="M1127 0h-232l-95 115l28 159h91l-24 -138l45 -55h149l65 55l106 601h90l-113 -643zM87 0l130 737h117l230 -603l106 603h91l-130 -737h-108l-220 582h-22l-103 -582h-91z" />
    <glyph glyph-name="Nacute" unicode="&#x143;" horiz-adv-x="718" 
d="M458 794l122 149h118l-157 -149h-83zM87 0l130 737h117l230 -603l106 603h91l-130 -737h-108l-220 582h-22l-103 -582h-91z" />
    <glyph glyph-name="Ncaron" unicode="&#x147;" horiz-adv-x="718" 
d="M444 794l-84 141h71l63 -84h5l92 84h79l-125 -141h-101zM87 0l130 737h117l230 -603l106 603h91l-130 -737h-108l-220 582h-22l-103 -582h-91z" />
    <glyph glyph-name="uni0145" unicode="&#x145;" horiz-adv-x="718" 
d="M87 0l130 737h117l230 -603l106 603h91l-130 -737h-108l-220 582h-22l-103 -582h-91zM228 -232l70 175h96l-113 -175h-53z" />
    <glyph glyph-name="Eng" unicode="&#x14a;" horiz-adv-x="718" 
d="M87 0l130 737h117l230 -603l106 603h91l-130 -737l-15 -87l-96 -83h-126l11 66h67l61 55l7 49h-17l-220 582h-22l-103 -582h-91z" />
    <glyph glyph-name="uni01CB" unicode="&#x1cb;" horiz-adv-x="1007" 
d="M87 0l130 737h117l230 -603l106 603h91l-130 -737h-108l-220 582h-22l-103 -582h-91zM940 580l20 118h88l-20 -118h-88zM671 -187l13 73h86l56 49l104 588h88l-111 -630l-97 -80h-139z" />
    <glyph glyph-name="Ntilde" unicode="&#xd1;" horiz-adv-x="718" 
d="M526 794l-59 70h-41l-43 -36l-6 -32h-53l13 71l63 54h101l60 -69h37l43 36l6 31h53l-13 -71l-63 -54h-98zM87 0l130 737h117l230 -603l106 603h91l-130 -737h-108l-220 582h-22l-103 -582h-91z" />
    <glyph glyph-name="O" unicode="O" 
d="M183 0l-94 115l93 528l110 94h349l94 -115l-93 -528l-109 -94h-350zM228 81h267l64 55l82 465l-45 55h-266l-65 -55l-81 -465z" />
    <glyph glyph-name="Oacute" unicode="&#xd3;" 
d="M443 794l122 149h119l-158 -149h-83zM183 0l-94 115l93 528l110 94h349l94 -115l-93 -528l-109 -94h-350zM228 81h267l64 55l82 465l-45 55h-266l-65 -55l-81 -465z" />
    <glyph glyph-name="Obreve" unicode="&#x14e;" 
d="M409 794l-57 69l11 65h61l-9 -49l21 -26h103l30 26l9 49h61l-14 -79l-65 -55h-151zM183 0l-94 115l93 528l110 94h349l94 -115l-93 -528l-109 -94h-350zM228 81h267l64 55l82 465l-45 55h-266l-65 -55l-81 -465z" />
    <glyph glyph-name="Ocircumflex" unicode="&#xd4;" 
d="M324 794l125 141h102l84 -141h-72l-62 85h-6l-92 -85h-79zM183 0l-94 115l93 528l110 94h349l94 -115l-93 -528l-109 -94h-350zM228 81h267l64 55l82 465l-45 55h-266l-65 -55l-81 -465z" />
    <glyph glyph-name="uni1ED0" unicode="&#x1ed0;" 
d="M631 871l122 149h118l-157 -149h-83zM324 794l125 141h102l84 -141h-72l-62 85h-6l-92 -85h-79zM183 0l-94 115l93 528l110 94h349l94 -115l-93 -528l-109 -94h-350zM228 81h267l64 55l82 465l-45 55h-266l-65 -55l-81 -465z" />
    <glyph glyph-name="uni1ED8" unicode="&#x1ed8;" 
d="M324 794l125 141h102l84 -141h-72l-62 85h-6l-92 -85h-79zM183 0l-94 115l93 528l110 94h349l94 -115l-93 -528l-109 -94h-350zM228 81h267l64 55l82 465l-45 55h-266l-65 -55l-81 -465zM275 -175l21 118h88l-21 -118h-88z" />
    <glyph glyph-name="uni1ED2" unicode="&#x1ed2;" 
d="M275 871l-103 149h106l69 -149h-72zM324 794l125 141h102l84 -141h-72l-62 85h-6l-92 -85h-79zM183 0l-94 115l93 528l110 94h349l94 -115l-93 -528l-109 -94h-350zM228 81h267l64 55l82 465l-45 55h-266l-65 -55l-81 -465z" />
    <glyph glyph-name="uni1ED4" unicode="&#x1ed4;" 
d="M618 871l10 58l76 57l4 25l-10 12h-38l-41 -35l-38 46l51 44h103l41 -52l-12 -70l-81 -58l-4 -27h-61zM324 794l125 141h102l84 -141h-72l-62 85h-6l-92 -85h-79zM183 0l-94 115l93 528l110 94h349l94 -115l-93 -528l-109 -94h-350zM228 81h267l64 55l82 465l-45 55h-266
l-65 -55l-81 -465z" />
    <glyph glyph-name="uni1ED6" unicode="&#x1ed6;" 
d="M527 962l-60 70h-41l-43 -36l-6 -32h-53l13 71l63 54h102l59 -69h37l43 36l6 31h53l-13 -71l-63 -54h-97zM324 794l125 141h102l84 -141h-72l-62 85h-6l-92 -85h-79zM183 0l-94 115l93 528l110 94h349l94 -115l-93 -528l-109 -94h-350zM228 81h267l64 55l82 465l-45 55
h-266l-65 -55l-81 -465z" />
    <glyph glyph-name="uni020C" unicode="&#x20c;" 
d="M349 794l-103 149h106l69 -149h-72zM516 794l-104 149h106l70 -149h-72zM183 0l-94 115l93 528l110 94h349l94 -115l-93 -528l-109 -94h-350zM228 81h267l64 55l82 465l-45 55h-266l-65 -55l-81 -465z" />
    <glyph glyph-name="Odieresis" unicode="&#xd6;" 
d="M306 794l21 118h88l-21 -118h-88zM571 794l21 118h88l-21 -118h-88zM183 0l-94 115l93 528l110 94h349l94 -115l-93 -528l-109 -94h-350zM228 81h267l64 55l82 465l-45 55h-266l-65 -55l-81 -465z" />
    <glyph glyph-name="uni022A" unicode="&#x22a;" 
d="M332 945l12 67h354l-12 -67h-354zM306 794l21 118h88l-21 -118h-88zM571 794l21 118h88l-21 -118h-88zM183 0l-94 115l93 528l110 94h349l94 -115l-93 -528l-109 -94h-350zM228 81h267l64 55l82 465l-45 55h-266l-65 -55l-81 -465z" />
    <glyph glyph-name="uni0230" unicode="&#x230;" 
d="M332 945l12 67h354l-12 -67h-354zM440 794l21 118h88l-21 -118h-88zM183 0l-94 115l93 528l110 94h349l94 -115l-93 -528l-109 -94h-350zM228 81h267l64 55l82 465l-45 55h-266l-65 -55l-81 -465z" />
    <glyph glyph-name="uni1ECC" unicode="&#x1ecc;" 
d="M183 0l-94 115l93 528l110 94h349l94 -115l-93 -528l-109 -94h-350zM228 81h267l64 55l82 465l-45 55h-266l-65 -55l-81 -465zM275 -175l21 118h88l-21 -118h-88z" />
    <glyph glyph-name="Ograve" unicode="&#xd2;" 
d="M429 794l-103 149h106l69 -149h-72zM183 0l-94 115l93 528l110 94h349l94 -115l-93 -528l-109 -94h-350zM228 81h267l64 55l82 465l-45 55h-266l-65 -55l-81 -465z" />
    <glyph glyph-name="uni1ECE" unicode="&#x1ece;" 
d="M451 794l10 59l76 56l4 25l-10 12h-39l-40 -35l-38 46l51 44h102l42 -52l-12 -69l-81 -58l-5 -28h-60zM183 0l-94 115l93 528l110 94h349l94 -115l-93 -528l-109 -94h-350zM228 81h267l64 55l82 465l-45 55h-266l-65 -55l-81 -465z" />
    <glyph glyph-name="Ohorn" unicode="&#x1a0;" 
d="M183 0l-94 115l93 528l110 94h349l52 -63h42l45 128h101l-98 -187h-49l-92 -521l-109 -94h-350zM228 81h267l64 55l82 465l-45 55h-266l-65 -55l-81 -465z" />
    <glyph glyph-name="uni1EDA" unicode="&#x1eda;" 
d="M443 794l122 149h119l-158 -149h-83zM183 0l-94 115l93 528l110 94h349l52 -63h42l45 128h101l-98 -187h-49l-92 -521l-109 -94h-350zM228 81h267l64 55l82 465l-45 55h-266l-65 -55l-81 -465z" />
    <glyph glyph-name="uni1EE2" unicode="&#x1ee2;" 
d="M183 0l-94 115l93 528l110 94h349l52 -63h42l45 128h101l-98 -187h-49l-92 -521l-109 -94h-350zM228 81h267l64 55l82 465l-45 55h-266l-65 -55l-81 -465zM275 -175l21 118h88l-21 -118h-88z" />
    <glyph glyph-name="uni1EDC" unicode="&#x1edc;" 
d="M429 794l-103 149h106l69 -149h-72zM183 0l-94 115l93 528l110 94h349l52 -63h42l45 128h101l-98 -187h-49l-92 -521l-109 -94h-350zM228 81h267l64 55l82 465l-45 55h-266l-65 -55l-81 -465z" />
    <glyph glyph-name="uni1EDE" unicode="&#x1ede;" 
d="M451 794l10 59l76 56l4 25l-10 12h-39l-40 -35l-38 46l51 44h102l42 -52l-12 -69l-81 -58l-5 -28h-60zM183 0l-94 115l93 528l110 94h349l52 -63h42l45 128h101l-98 -187h-49l-92 -521l-109 -94h-350zM228 81h267l64 55l82 465l-45 55h-266l-65 -55l-81 -465z" />
    <glyph glyph-name="uni1EE0" unicode="&#x1ee0;" 
d="M512 794l-60 70h-40l-43 -36l-7 -32h-53l14 71l63 54h101l60 -69h36l43 36l7 31h53l-14 -71l-63 -54h-97zM183 0l-94 115l93 528l110 94h349l52 -63h42l45 128h101l-98 -187h-49l-92 -521l-109 -94h-350zM228 81h267l64 55l82 465l-45 55h-266l-65 -55l-81 -465z" />
    <glyph glyph-name="Ohungarumlaut" unicode="&#x150;" 
d="M353 794l122 149h119l-158 -149h-83zM519 794l122 149h118l-157 -149h-83zM183 0l-94 115l93 528l110 94h349l94 -115l-93 -528l-109 -94h-350zM228 81h267l64 55l82 465l-45 55h-266l-65 -55l-81 -465z" />
    <glyph glyph-name="uni020E" unicode="&#x20e;" 
d="M345 794l14 79l65 55h151l57 -69l-12 -65h-60l9 50l-21 25h-104l-30 -25l-9 -50h-60zM183 0l-94 115l93 528l110 94h349l94 -115l-93 -528l-109 -94h-350zM228 81h267l64 55l82 465l-45 55h-266l-65 -55l-81 -465z" />
    <glyph glyph-name="Omacron" unicode="&#x14c;" 
d="M303 794l12 67h353l-11 -67h-354zM183 0l-94 115l93 528l110 94h349l94 -115l-93 -528l-109 -94h-350zM228 81h267l64 55l82 465l-45 55h-266l-65 -55l-81 -465z" />
    <glyph glyph-name="uni01EA" unicode="&#x1ea;" 
d="M472 -161l-54 66l11 62l44 33h-290l-94 115l93 528l110 94h349l94 -115l-93 -528l-156 -135l-6 -33l20 -25h29l-11 -62h-46zM228 81h267l64 55l82 465l-45 55h-266l-65 -55l-81 -465z" />
    <glyph glyph-name="Oslash" unicode="&#xd8;" 
d="M183 0l-94 115l93 528l110 94h349l94 -115l-93 -528l-109 -94h-350zM186 152l414 499l-4 5h-266l-65 -55zM228 81h267l64 55l79 448l-414 -498z" />
    <glyph glyph-name="Oslashacute" unicode="&#x1fe;" 
d="M443 794l122 149h119l-158 -149h-83zM183 0l-94 115l93 528l110 94h349l94 -115l-93 -528l-109 -94h-350zM186 152l414 499l-4 5h-266l-65 -55zM228 81h267l64 55l79 448l-414 -498z" />
    <glyph glyph-name="Otilde" unicode="&#xd5;" 
d="M512 794l-60 70h-40l-43 -36l-7 -32h-53l14 71l63 54h101l60 -69h36l43 36l7 31h53l-14 -71l-63 -54h-97zM183 0l-94 115l93 528l110 94h349l94 -115l-93 -528l-109 -94h-350zM228 81h267l64 55l82 465l-45 55h-266l-65 -55l-81 -465z" />
    <glyph glyph-name="uni022C" unicode="&#x22c;" 
d="M339 953l12 67h353l-12 -67h-353zM512 794l-60 70h-40l-43 -36l-7 -32h-53l14 71l63 54h101l60 -69h36l43 36l7 31h53l-14 -71l-63 -54h-97zM183 0l-94 115l93 528l110 94h349l94 -115l-93 -528l-109 -94h-350zM228 81h267l64 55l82 465l-45 55h-266l-65 -55l-81 -465z
" />
    <glyph glyph-name="OE" unicode="&#x152;" horiz-adv-x="1072" 
d="M183 0l-94 115l93 528l110 94h859l-15 -84h-395l-39 -224h353l-15 -83h-353l-46 -262h394l-14 -84h-838zM228 81h267l64 55l82 465l-45 55h-266l-65 -55l-81 -465z" />
    <glyph glyph-name="P" unicode="P" horiz-adv-x="610" 
d="M87 0l130 737h379l94 -115l-45 -254l-110 -94h-309l-48 -274h-91zM240 355h257l65 55l33 191l-45 56l-256 -1z" />
    <glyph glyph-name="Thorn" unicode="&#xde;" horiz-adv-x="610" 
d="M86 -1l130 737h92l-22 -126h288l94 -115l-45 -254l-110 -94h-309l-26 -148h-92zM218 228h257l64 55l34 191l-45 56l-257 -1z" />
    <glyph glyph-name="Q" unicode="Q" 
d="M289 -102l18 102h-124l-94 115l93 528l110 94h349l94 -115l-93 -528l-109 -94h-146l-18 -102h-80zM228 81h93l19 106h80l-19 -106h94l64 55l82 465l-45 55h-266l-65 -55l-81 -465z" />
    <glyph glyph-name="R" unicode="R" horiz-adv-x="677" 
d="M87 0l130 737h396l91 -112l-40 -230l-120 -103h-6l82 -292h-101l-79 292h-211l-51 -292h-91zM244 373h271l64 55l30 173l-44 55h-271z" />
    <glyph glyph-name="Racute" unicode="&#x154;" horiz-adv-x="677" 
d="M410 794l122 149h118l-157 -149h-83zM87 0l130 737h396l91 -112l-40 -230l-120 -103h-6l82 -292h-101l-79 292h-211l-51 -292h-91zM244 373h271l64 55l30 173l-44 55h-271z" />
    <glyph glyph-name="Rcaron" unicode="&#x158;" horiz-adv-x="677" 
d="M396 794l-84 141h72l62 -84h6l91 84h79l-125 -141h-101zM87 0l130 737h396l91 -112l-40 -230l-120 -103h-6l82 -292h-101l-79 292h-211l-51 -292h-91zM244 373h271l64 55l30 173l-44 55h-271z" />
    <glyph glyph-name="uni0156" unicode="&#x156;" horiz-adv-x="677" 
d="M87 0l130 737h396l91 -112l-40 -230l-120 -103h-6l82 -292h-101l-79 292h-211l-51 -292h-91zM244 373h271l64 55l30 173l-44 55h-271zM216 -232l70 175h96l-113 -175h-53z" />
    <glyph glyph-name="uni0210" unicode="&#x210;" horiz-adv-x="677" 
d="M316 794l-103 149h105l70 -149h-72zM482 794l-103 149h106l69 -149h-72zM87 0l130 737h396l91 -112l-40 -230l-120 -103h-6l82 -292h-101l-79 292h-211l-51 -292h-91zM244 373h271l64 55l30 173l-44 55h-271z" />
    <glyph glyph-name="uni0212" unicode="&#x212;" horiz-adv-x="677" 
d="M311 794l14 79l65 55h151l57 -69l-11 -65h-61l9 50l-21 25h-103l-31 -25l-8 -50h-61zM87 0l130 737h396l91 -112l-40 -230l-120 -103h-6l82 -292h-101l-79 292h-211l-51 -292h-91zM244 373h271l64 55l30 173l-44 55h-271z" />
    <glyph glyph-name="S" unicode="S" horiz-adv-x="658" 
d="M81 0l15 84h363l64 55l26 147l-45 55h-275l-94 114l33 185l113 97h400l-15 -84h-350l-65 -55l-21 -122l45 -55h275l94 -114l-37 -210l-114 -97h-412z" />
    <glyph glyph-name="Sacute" unicode="&#x15a;" horiz-adv-x="658" 
d="M418 794l122 149h118l-157 -149h-83zM81 0l15 84h363l64 55l26 147l-45 55h-275l-94 114l33 185l113 97h400l-15 -84h-350l-65 -55l-21 -122l45 -55h275l94 -114l-37 -210l-114 -97h-412z" />
    <glyph glyph-name="Scaron" unicode="&#x160;" horiz-adv-x="658" 
d="M404 794l-84 141h72l62 -84h6l92 84h79l-125 -141h-102zM81 0l15 84h363l64 55l26 147l-45 55h-275l-94 114l33 185l113 97h400l-15 -84h-350l-65 -55l-21 -122l45 -55h275l94 -114l-37 -210l-114 -97h-412z" />
    <glyph glyph-name="Scedilla" unicode="&#x15e;" horiz-adv-x="658" 
d="M231 -128l49 128h-199l15 84h363l64 55l26 147l-45 55h-275l-94 114l33 185l113 97h400l-15 -84h-350l-65 -55l-21 -122l45 -55h275l94 -114l-37 -210l-114 -97h-132l-62 -128h-68z" />
    <glyph glyph-name="Scircumflex" unicode="&#x15c;" horiz-adv-x="658" 
d="M299 794l125 141h101l84 -141h-71l-62 85h-6l-92 -85h-79zM81 0l15 84h363l64 55l26 147l-45 55h-275l-94 114l33 185l113 97h400l-15 -84h-350l-65 -55l-21 -122l45 -55h275l94 -114l-37 -210l-114 -97h-412z" />
    <glyph glyph-name="uni0218" unicode="&#x218;" horiz-adv-x="658" 
d="M81 0l15 84h363l64 55l26 147l-45 55h-275l-94 114l33 185l113 97h400l-15 -84h-350l-65 -55l-21 -122l45 -55h275l94 -114l-37 -210l-114 -97h-412zM189 -232l70 175h96l-112 -175h-54z" />
    <glyph glyph-name="uni1E9E" unicode="&#x1e9e;" horiz-adv-x="689" 
d="M87 0l113 643l110 94h256l86 -106l-11 -60l-155 -136h91l101 -127l-36 -204l-122 -104h-196l-83 102l65 56l63 -77h113l77 65l24 142l-51 66h-183l12 66l206 179l-47 57h-172l-65 -55l-105 -601h-91z" />
    <glyph glyph-name="uni018F" unicode="&#x18f;" horiz-adv-x="760" 
d="M183 0l-94 115l52 298h533l33 188l-45 55h-465l14 81h496l94 -115l-93 -528l-109 -94h-416zM228 81h333l64 55l35 199h-441l-35 -199z" />
    <glyph glyph-name="T" unicode="T" horiz-adv-x="555" 
d="M232 0l115 653h-218l14 84h529l-15 -84h-218l-116 -653h-91z" />
    <glyph glyph-name="Tbar" unicode="&#x166;" horiz-adv-x="555" 
d="M232 0l61 342h-164l12 69h164l42 242h-218l14 84h529l-15 -84h-218l-43 -242h163l-12 -69h-163l-61 -342h-91z" />
    <glyph glyph-name="Tcaron" unicode="&#x164;" horiz-adv-x="555" 
d="M363 794l-84 141h71l62 -84h6l92 84h79l-125 -141h-101zM232 0l115 653h-218l14 84h529l-15 -84h-218l-116 -653h-91z" />
    <glyph glyph-name="uni0162" unicode="&#x162;" horiz-adv-x="555" 
d="M213 -128l34 128h-15l115 653h-218l14 84h529l-15 -84h-218l-116 -653l-46 -128h-64z" />
    <glyph glyph-name="uni021A" unicode="&#x21a;" horiz-adv-x="555" 
d="M232 0l115 653h-218l14 84h529l-15 -84h-218l-116 -653h-91zM148 -232l70 175h96l-112 -175h-54z" />
    <glyph glyph-name="U" unicode="U" horiz-adv-x="703" 
d="M526 0h-349l-94 115l110 622h91l-107 -601l45 -55h266l64 55l106 601h91l-113 -644z" />
    <glyph glyph-name="Uacute" unicode="&#xda;" horiz-adv-x="703" 
d="M437 794l122 149h118l-157 -149h-83zM526 0h-349l-94 115l110 622h91l-107 -601l45 -55h266l64 55l106 601h91l-113 -644z" />
    <glyph glyph-name="Ubreve" unicode="&#x16c;" horiz-adv-x="703" 
d="M403 794l-58 69l11 65h61l-9 -49l21 -26h104l30 26l9 49h60l-14 -79l-65 -55h-150zM526 0h-349l-94 115l110 622h91l-107 -601l45 -55h266l64 55l106 601h91l-113 -644z" />
    <glyph glyph-name="Ucircumflex" unicode="&#xdb;" horiz-adv-x="703" 
d="M318 794l125 141h101l84 -141h-71l-63 85h-5l-92 -85h-79zM526 0h-349l-94 115l110 622h91l-107 -601l45 -55h266l64 55l106 601h91l-113 -644z" />
    <glyph glyph-name="uni0214" unicode="&#x214;" horiz-adv-x="703" 
d="M343 794l-103 149h105l70 -149h-72zM509 794l-103 149h106l69 -149h-72zM526 0h-349l-94 115l110 622h91l-107 -601l45 -55h266l64 55l106 601h91l-113 -644z" />
    <glyph glyph-name="Udieresis" unicode="&#xdc;" horiz-adv-x="703" 
d="M299 794l21 118h88l-21 -118h-88zM565 794l21 118h88l-21 -118h-88zM526 0h-349l-94 115l110 622h91l-107 -601l45 -55h266l64 55l106 601h91l-113 -644z" />
    <glyph glyph-name="uni1EE4" unicode="&#x1ee4;" horiz-adv-x="703" 
d="M526 0h-349l-94 115l110 622h91l-107 -601l45 -55h266l64 55l106 601h91l-113 -644zM270 -175l20 118h88l-20 -118h-88z" />
    <glyph glyph-name="Ugrave" unicode="&#xd9;" horiz-adv-x="703" 
d="M423 794l-103 149h105l70 -149h-72zM526 0h-349l-94 115l110 622h91l-107 -601l45 -55h266l64 55l106 601h91l-113 -644z" />
    <glyph glyph-name="uni1EE6" unicode="&#x1ee6;" horiz-adv-x="703" 
d="M444 794l10 59l76 56l4 25l-9 12h-39l-41 -35l-38 46l51 44h103l41 -52l-12 -69l-80 -58l-5 -28h-61zM526 0h-349l-94 115l110 622h91l-107 -601l45 -55h266l64 55l106 601h91l-113 -644z" />
    <glyph glyph-name="Uhorn" unicode="&#x1af;" horiz-adv-x="703" 
d="M526 0h-349l-94 115l110 622h91l-107 -601l45 -55h266l64 55l106 601h91l-11 -63h65l45 128h101l-98 -187h-123l-92 -522z" />
    <glyph glyph-name="uni1EE8" unicode="&#x1ee8;" horiz-adv-x="703" 
d="M437 794l122 149h118l-157 -149h-83zM526 0h-349l-94 115l110 622h91l-107 -601l45 -55h266l64 55l106 601h91l-11 -63h65l45 128h101l-98 -187h-123l-92 -522z" />
    <glyph glyph-name="uni1EF0" unicode="&#x1ef0;" horiz-adv-x="703" 
d="M526 0h-349l-94 115l110 622h91l-107 -601l45 -55h266l64 55l106 601h91l-11 -63h65l45 128h101l-98 -187h-123l-92 -522zM270 -175l20 118h88l-20 -118h-88z" />
    <glyph glyph-name="uni1EEA" unicode="&#x1eea;" horiz-adv-x="703" 
d="M423 794l-103 149h105l70 -149h-72zM526 0h-349l-94 115l110 622h91l-107 -601l45 -55h266l64 55l106 601h91l-11 -63h65l45 128h101l-98 -187h-123l-92 -522z" />
    <glyph glyph-name="uni1EEC" unicode="&#x1eec;" horiz-adv-x="703" 
d="M444 794l10 59l76 56l4 25l-9 12h-39l-41 -35l-38 46l51 44h103l41 -52l-12 -69l-80 -58l-5 -28h-61zM526 0h-349l-94 115l110 622h91l-107 -601l45 -55h266l64 55l106 601h91l-11 -63h65l45 128h101l-98 -187h-123l-92 -522z" />
    <glyph glyph-name="uni1EEE" unicode="&#x1eee;" horiz-adv-x="703" 
d="M505 794l-59 70h-41l-43 -36l-6 -32h-53l13 71l63 54h101l60 -69h37l43 36l6 31h53l-13 -71l-63 -54h-98zM526 0h-349l-94 115l110 622h91l-107 -601l45 -55h266l64 55l106 601h91l-11 -63h65l45 128h101l-98 -187h-123l-92 -522z" />
    <glyph glyph-name="Uhungarumlaut" unicode="&#x170;" horiz-adv-x="703" 
d="M347 794l122 149h118l-157 -149h-83zM512 794l122 149h119l-157 -149h-84zM526 0h-349l-94 115l110 622h91l-107 -601l45 -55h266l64 55l106 601h91l-113 -644z" />
    <glyph glyph-name="uni0216" unicode="&#x216;" horiz-adv-x="703" 
d="M338 794l14 79l65 55h151l57 -69l-11 -65h-61l9 50l-21 25h-103l-31 -25l-8 -50h-61zM526 0h-349l-94 115l110 622h91l-107 -601l45 -55h266l64 55l106 601h91l-113 -644z" />
    <glyph glyph-name="Umacron" unicode="&#x16a;" horiz-adv-x="703" 
d="M301 794l12 67h353l-12 -67h-353zM526 0h-349l-94 115l110 622h91l-107 -601l45 -55h266l64 55l106 601h91l-113 -644z" />
    <glyph glyph-name="Uogonek" unicode="&#x172;" horiz-adv-x="703" 
d="M331 -161l-53 66l11 66l44 29h-156l-94 115l110 622h91l-107 -601l45 -55h266l64 55l106 601h91l-113 -644l-110 -93h-121l-60 -40l-6 -34l20 -25h29l-11 -62h-46z" />
    <glyph glyph-name="Uring" unicode="&#x16e;" horiz-adv-x="703" 
d="M428 794l-56 68l13 75l63 54h97l56 -68l-13 -75l-63 -54h-97zM460 844h37l34 30l7 37l-24 30h-37l-35 -30l-7 -37zM526 0h-349l-94 115l110 622h91l-107 -601l45 -55h266l64 55l106 601h91l-113 -644z" />
    <glyph glyph-name="Utilde" unicode="&#x168;" horiz-adv-x="703" 
d="M505 794l-59 70h-41l-43 -36l-6 -32h-53l13 71l63 54h101l60 -69h37l43 36l6 31h53l-13 -71l-63 -54h-98zM526 0h-349l-94 115l110 622h91l-107 -601l45 -55h266l64 55l106 601h91l-113 -644z" />
    <glyph glyph-name="V" unicode="V" horiz-adv-x="666" 
d="M263 0l-122 737h92l101 -650h23l324 650h102l-378 -737h-142z" />
    <glyph glyph-name="W" unicode="W" horiz-adv-x="909" 
d="M189 0l-51 737h94l30 -650h22l252 650h82l23 -650h22l260 650h100l-311 -737h-146l-22 531l-211 -531h-144z" />
    <glyph glyph-name="Wacute" unicode="&#x1e82;" horiz-adv-x="909" 
d="M547 794l122 149h118l-157 -149h-83zM189 0l-51 737h94l30 -650h22l252 650h82l23 -650h22l260 650h100l-311 -737h-146l-22 531l-211 -531h-144z" />
    <glyph glyph-name="Wcircumflex" unicode="&#x174;" horiz-adv-x="909" 
d="M428 794l125 141h101l84 -141h-72l-62 85h-6l-91 -85h-79zM189 0l-51 737h94l30 -650h22l252 650h82l23 -650h22l260 650h100l-311 -737h-146l-22 531l-211 -531h-144z" />
    <glyph glyph-name="Wdieresis" unicode="&#x1e84;" horiz-adv-x="909" 
d="M409 794l21 118h88l-21 -118h-88zM675 794l20 118h88l-20 -118h-88zM189 0l-51 737h94l30 -650h22l252 650h82l23 -650h22l260 650h100l-311 -737h-146l-22 531l-211 -531h-144z" />
    <glyph glyph-name="Wgrave" unicode="&#x1e80;" horiz-adv-x="909" 
d="M533 794l-103 149h105l70 -149h-72zM189 0l-51 737h94l30 -650h22l252 650h82l23 -650h22l260 650h100l-311 -737h-146l-22 531l-211 -531h-144z" />
    <glyph glyph-name="X" unicode="X" horiz-adv-x="632" 
d="M3 0l289 377l-157 360h96l139 -310h23l233 310h112l-284 -360l155 -377h-97l-137 324h-23l-236 -324h-113z" />
    <glyph glyph-name="Y" unicode="Y" horiz-adv-x="633" 
d="M271 0l52 295l-180 442h96l138 -336h20l239 336h113l-335 -442l-52 -295h-91z" />
    <glyph glyph-name="Yacute" unicode="&#xdd;" horiz-adv-x="633" 
d="M416 794l122 149h118l-157 -149h-83zM271 0l52 295l-180 442h96l138 -336h20l239 336h113l-335 -442l-52 -295h-91z" />
    <glyph glyph-name="Ycircumflex" unicode="&#x176;" horiz-adv-x="633" 
d="M297 794l125 141h101l84 -141h-71l-63 85h-5l-92 -85h-79zM271 0l52 295l-180 442h96l138 -336h20l239 336h113l-335 -442l-52 -295h-91z" />
    <glyph glyph-name="Ydieresis" unicode="&#x178;" horiz-adv-x="633" 
d="M278 794l21 118h88l-21 -118h-88zM544 794l21 118h88l-21 -118h-88zM271 0l52 295l-180 442h96l138 -336h20l239 336h113l-335 -442l-52 -295h-91z" />
    <glyph glyph-name="uni1EF4" unicode="&#x1ef4;" horiz-adv-x="633" 
d="M271 0l52 295l-180 442h96l138 -336h20l239 336h113l-335 -442l-52 -295h-91zM242 -175l20 118h88l-20 -118h-88z" />
    <glyph glyph-name="Ygrave" unicode="&#x1ef2;" horiz-adv-x="633" 
d="M402 794l-103 149h105l70 -149h-72zM271 0l52 295l-180 442h96l138 -336h20l239 336h113l-335 -442l-52 -295h-91z" />
    <glyph glyph-name="uni1EF6" unicode="&#x1ef6;" horiz-adv-x="633" 
d="M423 794l10 58l76 57l4 25l-9 12h-39l-41 -35l-38 46l51 44h103l41 -52l-12 -70l-80 -58l-5 -27h-61zM271 0l52 295l-180 442h96l138 -336h20l239 336h113l-335 -442l-52 -295h-91z" />
    <glyph glyph-name="uni0232" unicode="&#x232;" horiz-adv-x="633" 
d="M280 794l12 67h353l-12 -67h-353zM271 0l52 295l-180 442h96l138 -336h20l239 336h113l-335 -442l-52 -295h-91z" />
    <glyph glyph-name="uni1EF8" unicode="&#x1ef8;" horiz-adv-x="633" 
d="M484 794l-59 70h-41l-43 -37l-6 -31h-53l13 71l63 54h101l60 -69h37l43 36l6 31h53l-13 -71l-63 -54h-98zM271 0l52 295l-180 442h96l138 -336h20l239 336h113l-335 -442l-52 -295h-91z" />
    <glyph glyph-name="Z" unicode="Z" horiz-adv-x="663" 
d="M72 0l18 104l481 527l4 22h-367l15 84h494l-17 -93l-491 -538l-4 -22h401l-15 -84h-519z" />
    <glyph glyph-name="Zacute" unicode="&#x179;" horiz-adv-x="663" 
d="M445 794l122 149h119l-157 -149h-84zM72 0l18 104l481 527l4 22h-367l15 84h494l-17 -93l-491 -538l-4 -22h401l-15 -84h-519z" />
    <glyph glyph-name="Zcaron" unicode="&#x17d;" horiz-adv-x="663" 
d="M432 794l-84 141h71l62 -84h6l92 84h79l-125 -141h-101zM72 0l18 104l481 527l4 22h-367l15 84h494l-17 -93l-491 -538l-4 -22h401l-15 -84h-519z" />
    <glyph glyph-name="Zdotaccent" unicode="&#x17b;" horiz-adv-x="663" 
d="M442 794l21 118h88l-21 -118h-88zM72 0l18 104l481 527l4 22h-367l15 84h494l-17 -93l-491 -538l-4 -22h401l-15 -84h-519z" />
    <glyph glyph-name="a" unicode="a" horiz-adv-x="570" 
d="M140 0l-86 105l22 129l112 95h275l12 65l-45 55h-248l13 74h273l97 -118l-72 -405h-88l14 80l-94 -80h-185zM190 70h125l121 102l15 88l-228 -1l-64 -54l-14 -80z" />
    <glyph glyph-name="aacute" unicode="&#xe1;" horiz-adv-x="570" 
d="M342 580l122 149h118l-157 -149h-83zM140 0l-86 105l22 129l112 95h275l12 65l-45 55h-248l13 74h273l97 -118l-72 -405h-88l14 80l-94 -80h-185zM190 70h125l121 102l15 88l-228 -1l-64 -54l-14 -80z" />
    <glyph glyph-name="abreve" unicode="&#x103;" horiz-adv-x="570" 
d="M307 580l-57 69l11 65h61l-9 -50l21 -25h104l30 25l9 50h60l-14 -79l-65 -55h-151zM140 0l-86 105l22 129l112 95h275l12 65l-45 55h-248l13 74h273l97 -118l-72 -405h-88l14 80l-94 -80h-185zM190 70h125l121 102l15 88l-228 -1l-64 -54l-14 -80z" />
    <glyph glyph-name="uni1EAF" unicode="&#x1eaf;" horiz-adv-x="570" 
d="M362 741l122 149h119l-157 -149h-84zM307 580l-57 69l11 65h61l-9 -50l21 -25h104l30 25l9 50h60l-14 -79l-65 -55h-151zM140 0l-86 105l22 129l112 95h275l12 65l-45 55h-248l13 74h273l97 -118l-72 -405h-88l14 80l-94 -80h-185zM190 70h125l121 102l15 88l-228 -1
l-64 -54l-14 -80z" />
    <glyph glyph-name="uni1EB7" unicode="&#x1eb7;" horiz-adv-x="570" 
d="M307 580l-57 69l11 65h61l-9 -50l21 -25h104l30 25l9 50h60l-14 -79l-65 -55h-151zM140 0l-86 105l22 129l112 95h275l12 65l-45 55h-248l13 74h273l97 -118l-72 -405h-88l14 80l-94 -80h-185zM190 70h125l121 102l15 88l-228 -1l-64 -54l-14 -80zM200 -175l21 118h88
l-21 -118h-88z" />
    <glyph glyph-name="uni1EB1" unicode="&#x1eb1;" horiz-adv-x="570" 
d="M359 741l-103 149h106l69 -149h-72zM307 580l-57 69l11 65h61l-9 -50l21 -25h104l30 25l9 50h60l-14 -79l-65 -55h-151zM140 0l-86 105l22 129l112 95h275l12 65l-45 55h-248l13 74h273l97 -118l-72 -405h-88l14 80l-94 -80h-185zM190 70h125l121 102l15 88l-228 -1
l-64 -54l-14 -80z" />
    <glyph glyph-name="uni1EB3" unicode="&#x1eb3;" horiz-adv-x="570" 
d="M372 741l11 59l75 56l5 25l-10 12h-39l-40 -35l-38 46l51 44h102l42 -52l-12 -70l-81 -57l-5 -28h-61zM307 580l-57 69l11 65h61l-9 -50l21 -25h104l30 25l9 50h60l-14 -79l-65 -55h-151zM140 0l-86 105l22 129l112 95h275l12 65l-45 55h-248l13 74h273l97 -118l-72 -405
h-88l14 80l-94 -80h-185zM190 70h125l121 102l15 88l-228 -1l-64 -54l-14 -80z" />
    <glyph glyph-name="uni1EB5" unicode="&#x1eb5;" horiz-adv-x="570" 
d="M422 741l-59 70h-41l-43 -37l-7 -31h-53l14 71l63 54h101l60 -69h36l43 36l7 31h53l-14 -71l-62 -54h-98zM307 580l-57 69l11 65h61l-9 -50l21 -25h104l30 25l9 50h60l-14 -79l-65 -55h-151zM140 0l-86 105l22 129l112 95h275l12 65l-45 55h-248l13 74h273l97 -118
l-72 -405h-88l14 80l-94 -80h-185zM190 70h125l121 102l15 88l-228 -1l-64 -54l-14 -80z" />
    <glyph glyph-name="acircumflex" unicode="&#xe2;" horiz-adv-x="570" 
d="M223 580l125 141h101l84 -141h-71l-63 84h-5l-92 -84h-79zM140 0l-86 105l22 129l112 95h275l12 65l-45 55h-248l13 74h273l97 -118l-72 -405h-88l14 80l-94 -80h-185zM190 70h125l121 102l15 88l-228 -1l-64 -54l-14 -80z" />
    <glyph glyph-name="uni1EA5" unicode="&#x1ea5;" horiz-adv-x="570" 
d="M530 657l122 148h118l-157 -148h-83zM223 580l125 141h101l84 -141h-71l-63 84h-5l-92 -84h-79zM140 0l-86 105l22 129l112 95h275l12 65l-45 55h-248l13 74h273l97 -118l-72 -405h-88l14 80l-94 -80h-185zM190 70h125l121 102l15 88l-228 -1l-64 -54l-14 -80z" />
    <glyph glyph-name="uni1EAD" unicode="&#x1ead;" horiz-adv-x="570" 
d="M223 580l125 141h101l84 -141h-71l-63 84h-5l-92 -84h-79zM140 0l-86 105l22 129l112 95h275l12 65l-45 55h-248l13 74h273l97 -118l-72 -405h-88l14 80l-94 -80h-185zM190 70h125l121 102l15 88l-228 -1l-64 -54l-14 -80zM200 -175l21 118h88l-21 -118h-88z" />
    <glyph glyph-name="uni1EA7" unicode="&#x1ea7;" horiz-adv-x="570" 
d="M174 657l-103 148h105l70 -148h-72zM223 580l125 141h101l84 -141h-71l-63 84h-5l-92 -84h-79zM140 0l-86 105l22 129l112 95h275l12 65l-45 55h-248l13 74h273l97 -118l-72 -405h-88l14 80l-94 -80h-185zM190 70h125l121 102l15 88l-228 -1l-64 -54l-14 -80z" />
    <glyph glyph-name="uni1EA9" unicode="&#x1ea9;" horiz-adv-x="570" 
d="M516 657l11 58l75 57l5 24l-10 13h-39l-41 -35l-37 45l51 44h102l42 -52l-13 -69l-80 -58l-5 -27h-61zM223 580l125 141h101l84 -141h-71l-63 84h-5l-92 -84h-79zM140 0l-86 105l22 129l112 95h275l12 65l-45 55h-248l13 74h273l97 -118l-72 -405h-88l14 80l-94 -80h-185
zM190 70h125l121 102l15 88l-228 -1l-64 -54l-14 -80z" />
    <glyph glyph-name="uni1EAB" unicode="&#x1eab;" horiz-adv-x="570" 
d="M425 748l-60 69h-40l-43 -36l-7 -31h-53l14 70l63 55h101l60 -70h36l43 37l7 31h53l-14 -71l-63 -54h-97zM223 580l125 141h101l84 -141h-71l-63 84h-5l-92 -84h-79zM140 0l-86 105l22 129l112 95h275l12 65l-45 55h-248l13 74h273l97 -118l-72 -405h-88l14 80l-94 -80
h-185zM190 70h125l121 102l15 88l-228 -1l-64 -54l-14 -80z" />
    <glyph glyph-name="uni0201" unicode="&#x201;" horiz-adv-x="570" 
d="M248 580l-103 149h105l70 -149h-72zM414 580l-103 149h106l69 -149h-72zM140 0l-86 105l22 129l112 95h275l12 65l-45 55h-248l13 74h273l97 -118l-72 -405h-88l14 80l-94 -80h-185zM190 70h125l121 102l15 88l-228 -1l-64 -54l-14 -80z" />
    <glyph glyph-name="adieresis" unicode="&#xe4;" horiz-adv-x="570" 
d="M204 580l21 118h88l-21 -118h-88zM470 580l20 118h88l-20 -118h-88zM140 0l-86 105l22 129l112 95h275l12 65l-45 55h-248l13 74h273l97 -118l-72 -405h-88l14 80l-94 -80h-185zM190 70h125l121 102l15 88l-228 -1l-64 -54l-14 -80z" />
    <glyph glyph-name="uni1EA1" unicode="&#x1ea1;" horiz-adv-x="570" 
d="M140 0l-86 105l22 129l112 95h275l12 65l-45 55h-248l13 74h273l97 -118l-72 -405h-88l14 80l-94 -80h-185zM190 70h125l121 102l15 88l-228 -1l-64 -54l-14 -80zM200 -175l21 118h88l-21 -118h-88z" />
    <glyph glyph-name="agrave" unicode="&#xe0;" horiz-adv-x="570" 
d="M328 580l-103 149h105l70 -149h-72zM140 0l-86 105l22 129l112 95h275l12 65l-45 55h-248l13 74h273l97 -118l-72 -405h-88l14 80l-94 -80h-185zM190 70h125l121 102l15 88l-228 -1l-64 -54l-14 -80z" />
    <glyph glyph-name="uni1EA3" unicode="&#x1ea3;" horiz-adv-x="570" 
d="M349 580l10 58l76 57l4 25l-9 12h-39l-41 -35l-38 46l51 43h103l41 -52l-12 -69l-80 -58l-5 -27h-61zM140 0l-86 105l22 129l112 95h275l12 65l-45 55h-248l13 74h273l97 -118l-72 -405h-88l14 80l-94 -80h-185zM190 70h125l121 102l15 88l-228 -1l-64 -54l-14 -80z" />
    <glyph glyph-name="uni0203" unicode="&#x203;" horiz-adv-x="570" 
d="M243 580l14 79l65 55h151l57 -70l-11 -64h-61l9 49l-21 26h-103l-31 -26l-8 -49h-61zM140 0l-86 105l22 129l112 95h275l12 65l-45 55h-248l13 74h273l97 -118l-72 -405h-88l14 80l-94 -80h-185zM190 70h125l121 102l15 88l-228 -1l-64 -54l-14 -80z" />
    <glyph glyph-name="amacron" unicode="&#x101;" horiz-adv-x="570" 
d="M206 580l11 67h354l-12 -67h-353zM140 0l-86 105l22 129l112 95h275l12 65l-45 55h-248l13 74h273l97 -118l-72 -405h-88l14 80l-94 -80h-185zM190 70h125l121 102l15 88l-228 -1l-64 -54l-14 -80z" />
    <glyph glyph-name="aogonek" unicode="&#x105;" horiz-adv-x="570" 
d="M394 -161l-54 66l12 68l53 27l14 80l-94 -80h-185l-86 105l22 129l112 95h275l12 65l-45 55h-248l13 74h273l97 -118l-72 -405l-87 -54l-4 -20l21 -25h28l-11 -62h-46zM190 70h125l121 102l15 88l-228 -1l-64 -54l-14 -80z" />
    <glyph glyph-name="aring" unicode="&#xe5;" horiz-adv-x="570" 
d="M333 580l-56 68l13 74l63 54h97l56 -68l-13 -74l-63 -54h-97zM365 630h37l34 29l7 38l-24 29h-38l-34 -29l-7 -38zM140 0l-86 105l22 129l112 95h275l12 65l-45 55h-248l13 74h273l97 -118l-72 -405h-88l14 80l-94 -80h-185zM190 70h125l121 102l15 88l-228 -1l-64 -54
l-14 -80z" />
    <glyph glyph-name="aringacute" unicode="&#x1fb;" horiz-adv-x="570" 
d="M365 808l122 149h119l-157 -149h-84zM333 580l-56 68l13 74l63 54h97l56 -68l-13 -74l-63 -54h-97zM365 630h37l34 29l7 38l-24 29h-38l-34 -29l-7 -38zM140 0l-86 105l22 129l112 95h275l12 65l-45 55h-248l13 74h273l97 -118l-72 -405h-88l14 80l-94 -80h-185zM190 70
h125l121 102l15 88l-228 -1l-64 -54l-14 -80z" />
    <glyph glyph-name="atilde" unicode="&#xe3;" horiz-adv-x="570" 
d="M410 580l-59 69h-41l-43 -36l-6 -31h-54l14 70l63 55h101l60 -70h37l43 37l6 31h53l-13 -71l-63 -54h-98zM140 0l-86 105l22 129l112 95h275l12 65l-45 55h-248l13 74h273l97 -118l-72 -405h-88l14 80l-94 -80h-185zM190 70h125l121 102l15 88l-228 -1l-64 -54l-14 -80z
" />
    <glyph glyph-name="ae" unicode="&#xe6;" horiz-adv-x="918" 
d="M140 0l-87 105l20 114l112 95h275l15 80l-45 55h-248l13 74h273l51 -63l73 63h235l93 -114l-29 -164h-355l-20 -117l45 -55h291l-13 -73h-321l-71 87l-103 -87h-204zM549 314h266l15 84l-45 55h-157l-65 -55zM190 69l131 1l113 96l14 79l-227 -1l-65 -54l-11 -65z" />
    <glyph glyph-name="aeacute" unicode="&#x1fd;" horiz-adv-x="918" 
d="M502 580l122 149h118l-157 -149h-83zM140 0l-87 105l20 114l112 95h275l15 80l-45 55h-248l13 74h273l51 -63l73 63h235l93 -114l-29 -164h-355l-20 -117l45 -55h291l-13 -73h-321l-71 87l-103 -87h-204zM549 314h266l15 84l-45 55h-157l-65 -55zM190 69l131 1l113 96
l14 79l-227 -1l-65 -54l-11 -65z" />
    <glyph glyph-name="b" unicode="b" horiz-adv-x="617" 
d="M82 0l130 737h88l-52 -294l86 80h200l87 -106l-55 -313l-122 -104h-186l-74 84l-14 -84h-88zM284 70h133l64 55l48 273l-44 55h-132l-122 -105l-31 -175z" />
    <glyph glyph-name="c" unicode="c" horiz-adv-x="557" 
d="M186 0l-96 117l55 310l111 96h233l89 -109l-11 -65h-88l9 54l-40 50h-156l-65 -55l-47 -270l45 -55h289l-13 -73h-315z" />
    <glyph glyph-name="cacute" unicode="&#x107;" horiz-adv-x="557" 
d="M350 580l122 149h119l-158 -149h-83zM186 0l-96 117l55 310l111 96h233l89 -109l-11 -65h-88l9 54l-40 50h-156l-65 -55l-47 -270l45 -55h289l-13 -73h-315z" />
    <glyph glyph-name="ccaron" unicode="&#x10d;" horiz-adv-x="557" 
d="M337 580l-84 141h71l62 -85h6l92 85h79l-125 -141h-101zM186 0l-96 117l55 310l111 96h233l89 -109l-11 -65h-88l9 54l-40 50h-156l-65 -55l-47 -270l45 -55h289l-13 -73h-315z" />
    <glyph glyph-name="ccedilla" unicode="&#xe7;" horiz-adv-x="557" 
d="M217 -128l48 128h-79l-96 117l55 310l111 96h233l89 -109l-11 -65h-88l9 54l-40 50h-156l-65 -55l-47 -270l45 -55h289l-13 -73h-154l-63 -128h-67z" />
    <glyph glyph-name="ccircumflex" unicode="&#x109;" horiz-adv-x="557" 
d="M231 580l125 141h102l84 -141h-72l-62 84h-6l-92 -84h-79zM186 0l-96 117l55 310l111 96h233l89 -109l-11 -65h-88l9 54l-40 50h-156l-65 -55l-47 -270l45 -55h289l-13 -73h-315z" />
    <glyph glyph-name="cdotaccent" unicode="&#x10b;" horiz-adv-x="557" 
d="M347 580l21 118h88l-21 -118h-88zM186 0l-96 117l55 310l111 96h233l89 -109l-11 -65h-88l9 54l-40 50h-156l-65 -55l-47 -270l45 -55h289l-13 -73h-315z" />
    <glyph glyph-name="d" unicode="d" horiz-adv-x="617" 
d="M182 0l-92 112l55 314l114 97h194l72 -83l53 297h88l-130 -737h-88l14 83l-87 -83h-193zM357 70l122 104l30 174l-84 105h-132l-65 -55l-48 -273l45 -55h132z" />
    <glyph glyph-name="eth" unicode="&#xf0;" horiz-adv-x="598" 
d="M433 0h-250l-93 113l48 270l111 96h199l-74 134l-77 -49l-30 58l76 48l-25 45l78 49l25 -44l76 49l31 -57l-76 -49l146 -265l-53 -303zM225 70h173l64 55l40 229l-38 55h-179l-64 -55l-41 -229z" />
    <glyph glyph-name="dcaron" unicode="&#x10f;" horiz-adv-x="617" 
d="M182 0l-92 112l55 314l114 97h194l72 -83l53 297h88l-130 -737h-88l14 83l-87 -83h-193zM673 562l70 175h96l-112 -175h-54zM357 70l122 104l30 174l-84 105h-132l-65 -55l-48 -273l45 -55h132z" />
    <glyph glyph-name="dcroat" unicode="&#x111;" horiz-adv-x="617" 
d="M182 0l-92 112l55 314l114 97h194l72 -83l24 135h-146l13 73h146l16 89h88l-16 -89h66l-12 -73h-67l-101 -575h-88l14 83l-87 -83h-193zM357 70l122 104l30 174l-84 105h-132l-65 -55l-48 -273l45 -55h132z" />
    <glyph glyph-name="uni01C6" unicode="&#x1c6;" horiz-adv-x="1169" 
d="M182 0l-92 112l55 314l114 97h194l72 -83l53 297h88l-130 -737h-88l14 83l-87 -83h-193zM946 580l-84 141h71l62 -85h6l92 85h79l-125 -141h-101zM678 0l16 90l389 359h-303l13 74h402l-18 -99l-378 -351h325l-13 -73h-433zM357 70l122 104l30 174l-84 105h-132l-65 -55
l-48 -273l45 -55h132z" />
    <glyph glyph-name="e" unicode="e" horiz-adv-x="583" 
d="M183 0l-93 114l55 313l112 96h234l94 -114l-32 -180h-355l-17 -101l44 -55h292l-13 -73h-321zM210 299h267l18 99l-45 55h-158l-64 -55z" />
    <glyph glyph-name="eacute" unicode="&#xe9;" horiz-adv-x="583" 
d="M347 580l122 149h119l-158 -149h-83zM183 0l-93 114l55 313l112 96h234l94 -114l-32 -180h-355l-17 -101l44 -55h292l-13 -73h-321zM210 299h267l18 99l-45 55h-158l-64 -55z" />
    <glyph glyph-name="ebreve" unicode="&#x115;" horiz-adv-x="583" 
d="M313 580l-58 69l12 65h61l-9 -50l21 -25h103l30 25l9 50h61l-14 -79l-65 -55h-151zM183 0l-93 114l55 313l112 96h234l94 -114l-32 -180h-355l-17 -101l44 -55h292l-13 -73h-321zM210 299h267l18 99l-45 55h-158l-64 -55z" />
    <glyph glyph-name="ecaron" unicode="&#x11b;" horiz-adv-x="583" 
d="M334 580l-85 141h72l62 -85h6l92 85h79l-125 -141h-101zM183 0l-93 114l55 313l112 96h234l94 -114l-32 -180h-355l-17 -101l44 -55h292l-13 -73h-321zM210 299h267l18 99l-45 55h-158l-64 -55z" />
    <glyph glyph-name="ecircumflex" unicode="&#xea;" horiz-adv-x="583" 
d="M228 580l125 141h102l84 -141h-72l-62 84h-6l-92 -84h-79zM183 0l-93 114l55 313l112 96h234l94 -114l-32 -180h-355l-17 -101l44 -55h292l-13 -73h-321zM210 299h267l18 99l-45 55h-158l-64 -55z" />
    <glyph glyph-name="uni1EBF" unicode="&#x1ebf;" horiz-adv-x="583" 
d="M535 657l122 148h118l-157 -148h-83zM228 580l125 141h102l84 -141h-72l-62 84h-6l-92 -84h-79zM183 0l-93 114l55 313l112 96h234l94 -114l-32 -180h-355l-17 -101l44 -55h292l-13 -73h-321zM210 299h267l18 99l-45 55h-158l-64 -55z" />
    <glyph glyph-name="uni1EC7" unicode="&#x1ec7;" horiz-adv-x="583" 
d="M228 580l125 141h102l84 -141h-72l-62 84h-6l-92 -84h-79zM183 0l-93 114l55 313l112 96h234l94 -114l-32 -180h-355l-17 -101l44 -55h292l-13 -73h-321zM210 299h267l18 99l-45 55h-158l-64 -55zM236 -175l21 118h88l-21 -118h-88z" />
    <glyph glyph-name="uni1EC1" unicode="&#x1ec1;" horiz-adv-x="583" 
d="M179 657l-103 148h106l69 -148h-72zM228 580l125 141h102l84 -141h-72l-62 84h-6l-92 -84h-79zM183 0l-93 114l55 313l112 96h234l94 -114l-32 -180h-355l-17 -101l44 -55h292l-13 -73h-321zM210 299h267l18 99l-45 55h-158l-64 -55z" />
    <glyph glyph-name="uni1EC3" unicode="&#x1ec3;" horiz-adv-x="583" 
d="M522 657l10 58l76 57l4 24l-10 13h-38l-41 -35l-38 45l51 44h103l41 -52l-12 -69l-81 -58l-5 -27h-60zM228 580l125 141h102l84 -141h-72l-62 84h-6l-92 -84h-79zM183 0l-93 114l55 313l112 96h234l94 -114l-32 -180h-355l-17 -101l44 -55h292l-13 -73h-321zM210 299h267
l18 99l-45 55h-158l-64 -55z" />
    <glyph glyph-name="uni1EC5" unicode="&#x1ec5;" horiz-adv-x="583" 
d="M430 748l-59 69h-41l-43 -36l-6 -31h-53l13 70l63 55h102l59 -70h37l43 37l6 31h53l-13 -71l-63 -54h-98zM228 580l125 141h102l84 -141h-72l-62 84h-6l-92 -84h-79zM183 0l-93 114l55 313l112 96h234l94 -114l-32 -180h-355l-17 -101l44 -55h292l-13 -73h-321zM210 299
h267l18 99l-45 55h-158l-64 -55z" />
    <glyph glyph-name="uni0205" unicode="&#x205;" horiz-adv-x="583" 
d="M253 580l-103 149h106l69 -149h-72zM420 580l-104 149h106l70 -149h-72zM183 0l-93 114l55 313l112 96h234l94 -114l-32 -180h-355l-17 -101l44 -55h292l-13 -73h-321zM210 299h267l18 99l-45 55h-158l-64 -55z" />
    <glyph glyph-name="edieresis" unicode="&#xeb;" horiz-adv-x="583" 
d="M210 580l21 118h88l-21 -118h-88zM475 580l21 118h88l-21 -118h-88zM183 0l-93 114l55 313l112 96h234l94 -114l-32 -180h-355l-17 -101l44 -55h292l-13 -73h-321zM210 299h267l18 99l-45 55h-158l-64 -55z" />
    <glyph glyph-name="edotaccent" unicode="&#x117;" horiz-adv-x="583" 
d="M344 580l21 118h88l-21 -118h-88zM183 0l-93 114l55 313l112 96h234l94 -114l-32 -180h-355l-17 -101l44 -55h292l-13 -73h-321zM210 299h267l18 99l-45 55h-158l-64 -55z" />
    <glyph glyph-name="uni1EB9" unicode="&#x1eb9;" horiz-adv-x="583" 
d="M183 0l-93 114l55 313l112 96h234l94 -114l-32 -180h-355l-17 -101l44 -55h292l-13 -73h-321zM210 299h267l18 99l-45 55h-158l-64 -55zM236 -175l21 118h88l-21 -118h-88z" />
    <glyph glyph-name="egrave" unicode="&#xe8;" horiz-adv-x="583" 
d="M333 580l-103 149h106l69 -149h-72zM183 0l-93 114l55 313l112 96h234l94 -114l-32 -180h-355l-17 -101l44 -55h292l-13 -73h-321zM210 299h267l18 99l-45 55h-158l-64 -55z" />
    <glyph glyph-name="uni1EBB" unicode="&#x1ebb;" horiz-adv-x="583" 
d="M355 580l10 58l76 57l4 25l-10 12h-39l-40 -35l-38 46l51 43h102l42 -52l-12 -69l-81 -58l-5 -27h-60zM183 0l-93 114l55 313l112 96h234l94 -114l-32 -180h-355l-17 -101l44 -55h292l-13 -73h-321zM210 299h267l18 99l-45 55h-158l-64 -55z" />
    <glyph glyph-name="uni0207" unicode="&#x207;" horiz-adv-x="583" 
d="M249 580l14 79l65 55h151l57 -70l-12 -64h-60l9 49l-22 26h-103l-30 -26l-9 -49h-60zM183 0l-93 114l55 313l112 96h234l94 -114l-32 -180h-355l-17 -101l44 -55h292l-13 -73h-321zM210 299h267l18 99l-45 55h-158l-64 -55z" />
    <glyph glyph-name="emacron" unicode="&#x113;" horiz-adv-x="583" 
d="M211 580l12 67h353l-11 -67h-354zM183 0l-93 114l55 313l112 96h234l94 -114l-32 -180h-355l-17 -101l44 -55h292l-13 -73h-321zM210 299h267l18 99l-45 55h-158l-64 -55z" />
    <glyph glyph-name="eogonek" unicode="&#x119;" horiz-adv-x="583" 
d="M430 -161l-54 66l12 66l43 29h-248l-93 114l55 313l112 96h234l94 -114l-32 -180h-355l-17 -101l44 -55h292l-13 -73l-60 -40l-6 -34l20 -25h29l-11 -62h-46zM210 299h267l18 99l-45 55h-158l-64 -55z" />
    <glyph glyph-name="uni1EBD" unicode="&#x1ebd;" horiz-adv-x="583" 
d="M416 580l-60 69h-40l-43 -36l-7 -31h-53l14 70l63 55h101l60 -70h36l43 37l7 31h53l-14 -71l-63 -54h-97zM183 0l-93 114l55 313l112 96h234l94 -114l-32 -180h-355l-17 -101l44 -55h292l-13 -73h-321zM210 299h267l18 99l-45 55h-158l-64 -55z" />
    <glyph glyph-name="uni0259" unicode="&#x259;" horiz-adv-x="583" 
d="M184 0l-94 114l32 180h355l17 100l-44 55h-292l13 74h321l93 -114l-55 -314l-112 -95h-234zM225 70h158l64 55l18 99h-267l-18 -99z" />
    <glyph glyph-name="f" unicode="f" horiz-adv-x="304" 
d="M86 0l80 453h-54l12 70h54l24 134l96 80h140l-13 -73h-87l-56 -49l-16 -92h112l-12 -70h-112l-80 -453h-88z" />
    <glyph glyph-name="g" unicode="g" horiz-adv-x="617" 
d="M78 -187l13 73l282 1l65 54l24 141l-86 -82h-193l-92 112l55 314l113 97h195l71 -83l15 83h88l-107 -606l-122 -104h-321zM358 70l120 104l31 175l-84 104h-132l-64 -55l-48 -273l45 -55h132z" />
    <glyph glyph-name="gbreve" unicode="&#x11f;" horiz-adv-x="617" 
d="M330 580l-57 69l11 65h61l-9 -50l21 -25h103l31 25l8 50h61l-14 -79l-65 -55h-151zM78 -187l13 73l282 1l65 54l24 141l-86 -82h-193l-92 112l55 314l113 97h195l71 -83l15 83h88l-107 -606l-122 -104h-321zM358 70l120 104l31 175l-84 104h-132l-64 -55l-48 -273l45 -55
h132z" />
    <glyph glyph-name="gcaron" unicode="&#x1e7;" horiz-adv-x="617" 
d="M351 580l-84 141h71l62 -85h6l92 85h79l-125 -141h-101zM78 -187l13 73l282 1l65 54l24 141l-86 -82h-193l-92 112l55 314l113 97h195l71 -83l15 83h88l-107 -606l-122 -104h-321zM358 70l120 104l31 175l-84 104h-132l-64 -55l-48 -273l45 -55h132z" />
    <glyph glyph-name="gcircumflex" unicode="&#x11d;" horiz-adv-x="617" 
d="M246 580l124 141h102l84 -141h-72l-62 84h-6l-92 -84h-78zM78 -187l13 73l282 1l65 54l24 141l-86 -82h-193l-92 112l55 314l113 97h195l71 -83l15 83h88l-107 -606l-122 -104h-321zM358 70l120 104l31 175l-84 104h-132l-64 -55l-48 -273l45 -55h132z" />
    <glyph glyph-name="uni0123" unicode="&#x123;" horiz-adv-x="617" 
d="M356 580l113 175h54l-71 -175h-96zM78 -187l13 73l282 1l65 54l24 141l-86 -82h-193l-92 112l55 314l113 97h195l71 -83l15 83h88l-107 -606l-122 -104h-321zM358 70l120 104l31 175l-84 104h-132l-64 -55l-48 -273l45 -55h132z" />
    <glyph glyph-name="gdotaccent" unicode="&#x121;" horiz-adv-x="617" 
d="M361 580l21 118h88l-21 -118h-88zM78 -187l13 73l282 1l65 54l24 141l-86 -82h-193l-92 112l55 314l113 97h195l71 -83l15 83h88l-107 -606l-122 -104h-321zM358 70l120 104l31 175l-84 104h-132l-64 -55l-48 -273l45 -55h132z" />
    <glyph glyph-name="h" unicode="h" horiz-adv-x="624" 
d="M82 0l130 737h88l-52 -294l86 80h191l95 -112l-73 -411h-88l70 396l-43 57h-133l-122 -105l-61 -348h-88z" />
    <glyph glyph-name="hbar" unicode="&#x127;" horiz-adv-x="624" 
d="M82 0l102 579h-62l13 73h62l15 85h88l-15 -85h150l-13 -73h-150l-24 -136l86 80h191l95 -112l-73 -411h-88l70 396l-43 57h-133l-122 -105l-61 -348h-88z" />
    <glyph glyph-name="hcircumflex" unicode="&#x125;" horiz-adv-x="624" 
d="M221 794l125 141h102l84 -141h-72l-62 85h-6l-92 -85h-79zM82 0l130 737h88l-52 -294l86 80h191l95 -112l-73 -411h-88l70 396l-43 57h-133l-122 -105l-61 -348h-88z" />
    <glyph glyph-name="i" unicode="i" horiz-adv-x="251" 
d="M183 580l21 118h88l-21 -118h-88zM81 0l92 523h88l-92 -523h-88z" />
    <glyph glyph-name="dotlessi" unicode="&#x131;" horiz-adv-x="251" 
d="M81 0l92 523h88l-92 -523h-88z" />
    <glyph glyph-name="iacute" unicode="&#xed;" horiz-adv-x="251" 
d="M186 580l122 149h118l-157 -149h-83zM81 0l92 523h88l-92 -523h-88z" />
    <glyph glyph-name="ibreve" unicode="&#x12d;" horiz-adv-x="251" 
d="M152 580l-58 69l12 65h60l-8 -49l21 -26h103l30 26l9 49h61l-14 -79l-65 -55h-151zM81 0l92 523h88l-92 -523h-88z" />
    <glyph glyph-name="icircumflex" unicode="&#xee;" horiz-adv-x="251" 
d="M67 580l125 141h101l84 -141h-71l-62 85h-6l-92 -85h-79zM81 0l92 523h88l-92 -523h-88z" />
    <glyph glyph-name="uni0209" unicode="&#x209;" horiz-adv-x="251" 
d="M92 580l-103 149h106l69 -149h-72zM258 580l-103 149h106l69 -149h-72zM81 0l92 523h88l-92 -523h-88z" />
    <glyph glyph-name="idieresis" unicode="&#xef;" horiz-adv-x="251" 
d="M49 580l20 118h88l-20 -118h-88zM314 580l21 118h88l-21 -118h-88zM81 0l92 523h88l-92 -523h-88z" />
    <glyph glyph-name="i.loclTRK" horiz-adv-x="251" 
d="M183 580l20 118h88l-20 -118h-88zM81 0l92 523h88l-92 -523h-88z" />
    <glyph glyph-name="uni1ECB" unicode="&#x1ecb;" horiz-adv-x="251" 
d="M183 580l20 118h88l-20 -118h-88zM81 0l92 523h88l-92 -523h-88zM51 -175l21 118h88l-21 -118h-88z" />
    <glyph glyph-name="igrave" unicode="&#xec;" horiz-adv-x="251" 
d="M172 580l-103 149h106l69 -149h-72zM81 0l92 523h88l-92 -523h-88z" />
    <glyph glyph-name="uni1EC9" unicode="&#x1ec9;" horiz-adv-x="251" 
d="M193 580l11 58l75 57l5 25l-10 12h-39l-41 -35l-37 46l51 44h102l42 -52l-13 -70l-80 -58l-5 -27h-61zM81 0l92 523h88l-92 -523h-88z" />
    <glyph glyph-name="uni020B" unicode="&#x20b;" horiz-adv-x="251" 
d="M87 580l14 79l65 55h151l58 -70l-12 -64h-60l8 50l-21 25h-103l-30 -25l-9 -50h-61zM81 0l92 523h88l-92 -523h-88z" />
    <glyph glyph-name="imacron" unicode="&#x12b;" horiz-adv-x="251" 
d="M50 580l12 67h353l-12 -67h-353zM81 0l92 523h88l-92 -523h-88z" />
    <glyph glyph-name="iogonek" unicode="&#x12f;" horiz-adv-x="251" 
d="M183 580l20 118h88l-20 -118h-88zM95 -161l-54 66l11 63l49 32h-20l92 523h88l-93 -527l-60 -39l-5 -31l20 -25h29l-11 -62h-46z" />
    <glyph glyph-name="itilde" unicode="&#x129;" horiz-adv-x="251" 
d="M255 580l-60 70h-41l-43 -37l-6 -31h-53l13 71l63 54h102l59 -69h37l43 36l6 31h53l-13 -71l-63 -54h-97zM81 0l92 523h88l-92 -523h-88z" />
    <glyph glyph-name="j" unicode="j" horiz-adv-x="264" 
d="M196 580l21 118h88l-21 -118h-88zM-73 -187l13 73h87l55 49l104 588h88l-111 -630l-96 -80h-140z" />
    <glyph glyph-name="uni0237" unicode="&#x237;" horiz-adv-x="264" 
d="M-73 -187l13 73h87l55 49l104 588h88l-111 -630l-96 -80h-140z" />
    <glyph glyph-name="jcircumflex" unicode="&#x135;" horiz-adv-x="264" 
d="M80 580l125 141h102l84 -141h-72l-62 84h-6l-92 -84h-79zM-73 -187l13 73h87l55 49l104 588h88l-111 -630l-96 -80h-140z" />
    <glyph glyph-name="k" unicode="k" horiz-adv-x="543" 
d="M82 0l130 737h88l-71 -401h23l242 187h127l-270 -217l182 -306h-98l-150 253l-82 -65l-33 -188h-88z" />
    <glyph glyph-name="uni0137" unicode="&#x137;" horiz-adv-x="543" 
d="M82 0l130 737h88l-71 -401h23l242 187h127l-270 -217l182 -306h-98l-150 253l-82 -65l-33 -188h-88zM174 -232l71 175h95l-112 -175h-54z" />
    <glyph glyph-name="kgreenlandic" unicode="&#x138;" horiz-adv-x="543" 
d="M82 0l92 523h88l-33 -187h23l242 187h127l-270 -217l182 -306h-98l-150 253l-82 -65l-33 -188h-88z" />
    <glyph glyph-name="l" unicode="l" horiz-adv-x="251" 
d="M82 0l130 737h88l-130 -737h-88z" />
    <glyph glyph-name="lacute" unicode="&#x13a;" horiz-adv-x="251" 
d="M225 794l122 149h119l-158 -149h-83zM82 0l130 737h88l-130 -737h-88z" />
    <glyph glyph-name="lcaron" unicode="&#x13e;" horiz-adv-x="251" 
d="M82 0l130 737h88l-130 -737h-88zM310 562l70 175h96l-112 -175h-54z" />
    <glyph glyph-name="uni013C" unicode="&#x13c;" horiz-adv-x="251" 
d="M82 0l130 737h88l-130 -737h-88zM-2 -232l71 175h95l-112 -175h-54z" />
    <glyph glyph-name="ldot" unicode="&#x140;" horiz-adv-x="451" 
d="M82 0l130 737h88l-130 -737h-88zM337 310l21 118h88l-21 -118h-88z" />
    <glyph glyph-name="uni01C9" unicode="&#x1c9;" horiz-adv-x="524" 
d="M82 0l130 737h88l-130 -737h-88zM464 580l20 118h88l-20 -118h-88zM195 -187l12 73h87l56 49l104 588h88l-111 -630l-97 -80h-139z" />
    <glyph glyph-name="lslash" unicode="&#x142;" horiz-adv-x="385" 
d="M137 0l56 321l-74 -31l17 97l74 30l57 320h88l-50 -281l69 28l-17 -97l-69 -28l-63 -359h-88z" />
    <glyph glyph-name="m" unicode="m" horiz-adv-x="1011" 
d="M82 0l92 523h88l-16 -93l99 93h191l81 -96l104 96h191l94 -112l-72 -411h-88l70 396l-44 57h-133l-119 -102l-62 -351h-88l70 396l-43 57h-133l-135 -116l-59 -337h-88z" />
    <glyph glyph-name="n" unicode="n" horiz-adv-x="635" 
d="M82 0l92 523h88l-16 -93l99 93h191l95 -112l-73 -411h-88l70 396l-43 57h-133l-135 -116l-59 -337h-88z" />
    <glyph glyph-name="nacute" unicode="&#x144;" horiz-adv-x="635" 
d="M382 580l122 149h118l-157 -149h-83zM82 0l92 523h88l-16 -93l99 93h191l95 -112l-73 -411h-88l70 396l-43 57h-133l-135 -116l-59 -337h-88z" />
    <glyph glyph-name="ncaron" unicode="&#x148;" horiz-adv-x="635" 
d="M368 580l-84 141h71l62 -85h6l92 85h79l-125 -141h-101zM82 0l92 523h88l-16 -93l99 93h191l95 -112l-73 -411h-88l70 396l-43 57h-133l-135 -116l-59 -337h-88z" />
    <glyph glyph-name="uni0146" unicode="&#x146;" horiz-adv-x="635" 
d="M82 0l92 523h88l-16 -93l99 93h191l95 -112l-73 -411h-88l70 396l-43 57h-133l-135 -116l-59 -337h-88zM190 -232l71 175h96l-113 -175h-54z" />
    <glyph glyph-name="eng" unicode="&#x14b;" horiz-adv-x="635" 
d="M303 -187l13 73h87l56 49l81 461l-43 57h-133l-135 -116l-59 -337h-88l92 523h88l-16 -93l99 93h191l95 -112l-92 -518l-96 -80h-140z" />
    <glyph glyph-name="uni01CC" unicode="&#x1cc;" horiz-adv-x="892" 
d="M831 580l21 118h88l-21 -118h-88zM82 0l92 523h88l-16 -93l99 93h191l95 -112l-73 -411h-88l70 396l-43 57h-133l-135 -116l-59 -337h-88zM562 -187l13 73h87l56 49l103 588h88l-111 -630l-96 -80h-140z" />
    <glyph glyph-name="ntilde" unicode="&#xf1;" horiz-adv-x="635" 
d="M450 580l-59 69h-41l-43 -36l-7 -31h-53l14 70l63 55h101l60 -70h36l43 37l7 31h53l-14 -71l-62 -54h-98zM82 0l92 523h88l-16 -93l99 93h191l95 -112l-73 -411h-88l70 396l-43 57h-133l-135 -116l-59 -337h-88z" />
    <glyph glyph-name="o" unicode="o" horiz-adv-x="598" 
d="M433 0h-250l-93 113l55 314l112 96h249l94 -114l-56 -314zM225 70h172l65 55l48 273l-45 55h-173l-64 -55l-48 -273z" />
    <glyph glyph-name="oacute" unicode="&#xf3;" horiz-adv-x="598" 
d="M355 580l122 149h118l-157 -149h-83zM433 0h-250l-93 113l55 314l112 96h249l94 -114l-56 -314zM225 70h172l65 55l48 273l-45 55h-173l-64 -55l-48 -273z" />
    <glyph glyph-name="obreve" unicode="&#x14f;" horiz-adv-x="598" 
d="M320 580l-57 69l11 65h61l-9 -50l21 -25h104l30 25l9 50h60l-14 -79l-65 -55h-151zM433 0h-250l-93 113l55 314l112 96h249l94 -114l-56 -314zM225 70h172l65 55l48 273l-45 55h-173l-64 -55l-48 -273z" />
    <glyph glyph-name="ocircumflex" unicode="&#xf4;" horiz-adv-x="598" 
d="M236 580l125 141h101l84 -141h-71l-63 84h-5l-92 -84h-79zM433 0h-250l-93 113l55 314l112 96h249l94 -114l-56 -314zM225 70h172l65 55l48 273l-45 55h-173l-64 -55l-48 -273z" />
    <glyph glyph-name="uni1ED1" unicode="&#x1ed1;" horiz-adv-x="598" 
d="M543 657l122 148h118l-157 -148h-83zM236 580l125 141h101l84 -141h-71l-63 84h-5l-92 -84h-79zM433 0h-250l-93 113l55 314l112 96h249l94 -114l-56 -314zM225 70h172l65 55l48 273l-45 55h-173l-64 -55l-48 -273z" />
    <glyph glyph-name="uni1ED9" unicode="&#x1ed9;" horiz-adv-x="598" 
d="M236 580l125 141h101l84 -141h-71l-63 84h-5l-92 -84h-79zM433 0h-250l-93 113l55 314l112 96h249l94 -114l-56 -314zM225 70h172l65 55l48 273l-45 55h-173l-64 -55l-48 -273zM227 -175l21 118h88l-21 -118h-88z" />
    <glyph glyph-name="uni1ED3" unicode="&#x1ed3;" horiz-adv-x="598" 
d="M187 657l-103 148h105l70 -148h-72zM236 580l125 141h101l84 -141h-71l-63 84h-5l-92 -84h-79zM433 0h-250l-93 113l55 314l112 96h249l94 -114l-56 -314zM225 70h172l65 55l48 273l-45 55h-173l-64 -55l-48 -273z" />
    <glyph glyph-name="uni1ED5" unicode="&#x1ed5;" horiz-adv-x="598" 
d="M529 657l11 58l75 57l5 24l-10 13h-39l-41 -35l-37 45l51 44h102l42 -52l-13 -69l-80 -58l-5 -27h-61zM236 580l125 141h101l84 -141h-71l-63 84h-5l-92 -84h-79zM433 0h-250l-93 113l55 314l112 96h249l94 -114l-56 -314zM225 70h172l65 55l48 273l-45 55h-173l-64 -55
l-48 -273z" />
    <glyph glyph-name="uni1ED7" unicode="&#x1ed7;" horiz-adv-x="598" 
d="M438 748l-60 69h-40l-43 -36l-7 -31h-53l14 70l63 55h101l60 -70h36l43 37l7 31h53l-14 -71l-63 -54h-97zM236 580l125 141h101l84 -141h-71l-63 84h-5l-92 -84h-79zM433 0h-250l-93 113l55 314l112 96h249l94 -114l-56 -314zM225 70h172l65 55l48 273l-45 55h-173
l-64 -55l-48 -273z" />
    <glyph glyph-name="uni020D" unicode="&#x20d;" horiz-adv-x="598" 
d="M261 580l-103 149h105l70 -149h-72zM427 580l-103 149h106l69 -149h-72zM433 0h-250l-93 113l55 314l112 96h249l94 -114l-56 -314zM225 70h172l65 55l48 273l-45 55h-173l-64 -55l-48 -273z" />
    <glyph glyph-name="odieresis" unicode="&#xf6;" horiz-adv-x="598" 
d="M217 580l21 118h88l-21 -118h-88zM483 580l20 118h88l-20 -118h-88zM433 0h-250l-93 113l55 314l112 96h249l94 -114l-56 -314zM225 70h172l65 55l48 273l-45 55h-173l-64 -55l-48 -273z" />
    <glyph glyph-name="uni022B" unicode="&#x22b;" horiz-adv-x="598" 
d="M244 730l12 67h353l-12 -67h-353zM217 580l21 118h88l-21 -118h-88zM483 580l20 118h88l-20 -118h-88zM433 0h-250l-93 113l55 314l112 96h249l94 -114l-56 -314zM225 70h172l65 55l48 273l-45 55h-173l-64 -55l-48 -273z" />
    <glyph glyph-name="uni0231" unicode="&#x231;" horiz-adv-x="598" 
d="M244 730l12 67h353l-12 -67h-353zM351 580l21 118h88l-21 -118h-88zM433 0h-250l-93 113l55 314l112 96h249l94 -114l-56 -314zM225 70h172l65 55l48 273l-45 55h-173l-64 -55l-48 -273z" />
    <glyph glyph-name="uni1ECD" unicode="&#x1ecd;" horiz-adv-x="598" 
d="M433 0h-250l-93 113l55 314l112 96h249l94 -114l-56 -314zM225 70h172l65 55l48 273l-45 55h-173l-64 -55l-48 -273zM227 -175l21 118h88l-21 -118h-88z" />
    <glyph glyph-name="ograve" unicode="&#xf2;" horiz-adv-x="598" 
d="M341 580l-103 149h105l70 -149h-72zM433 0h-250l-93 113l55 314l112 96h249l94 -114l-56 -314zM225 70h172l65 55l48 273l-45 55h-173l-64 -55l-48 -273z" />
    <glyph glyph-name="uni1ECF" unicode="&#x1ecf;" horiz-adv-x="598" 
d="M362 580l10 58l76 57l4 25l-9 12h-39l-41 -35l-38 46l51 43h103l41 -52l-12 -69l-80 -58l-5 -27h-61zM433 0h-250l-93 113l55 314l112 96h249l94 -114l-56 -314zM225 70h172l65 55l48 273l-45 55h-173l-64 -55l-48 -273z" />
    <glyph glyph-name="ohorn" unicode="&#x1a1;" horiz-adv-x="655" 
d="M433 0h-250l-93 113l55 314l112 96h249l52 -64h63l45 128h101l-98 -187h-71l-54 -305zM225 70h172l65 55l48 273l-45 55h-173l-64 -55l-48 -273z" />
    <glyph glyph-name="uni1EDB" unicode="&#x1edb;" horiz-adv-x="655" 
d="M355 580l122 149h118l-157 -149h-83zM433 0h-250l-93 113l55 314l112 96h249l52 -64h63l45 128h101l-98 -187h-71l-54 -305zM225 70h172l65 55l48 273l-45 55h-173l-64 -55l-48 -273z" />
    <glyph glyph-name="uni1EE3" unicode="&#x1ee3;" horiz-adv-x="655" 
d="M433 0h-250l-93 113l55 314l112 96h249l52 -64h63l45 128h101l-98 -187h-71l-54 -305zM225 70h172l65 55l48 273l-45 55h-173l-64 -55l-48 -273zM227 -175l21 118h88l-21 -118h-88z" />
    <glyph glyph-name="uni1EDD" unicode="&#x1edd;" horiz-adv-x="655" 
d="M341 580l-103 149h105l70 -149h-72zM433 0h-250l-93 113l55 314l112 96h249l52 -64h63l45 128h101l-98 -187h-71l-54 -305zM225 70h172l65 55l48 273l-45 55h-173l-64 -55l-48 -273z" />
    <glyph glyph-name="uni1EDF" unicode="&#x1edf;" horiz-adv-x="655" 
d="M362 580l10 58l76 57l4 25l-9 12h-39l-41 -35l-38 46l51 43h103l41 -52l-12 -69l-80 -58l-5 -27h-61zM433 0h-250l-93 113l55 314l112 96h249l52 -64h63l45 128h101l-98 -187h-71l-54 -305zM225 70h172l65 55l48 273l-45 55h-173l-64 -55l-48 -273z" />
    <glyph glyph-name="uni1EE1" unicode="&#x1ee1;" horiz-adv-x="655" 
d="M423 580l-59 69h-41l-43 -36l-6 -31h-54l14 70l63 55h101l60 -70h37l43 37l6 31h53l-13 -71l-63 -54h-98zM433 0h-250l-93 113l55 314l112 96h249l52 -64h63l45 128h101l-98 -187h-71l-54 -305zM225 70h172l65 55l48 273l-45 55h-173l-64 -55l-48 -273z" />
    <glyph glyph-name="ohungarumlaut" unicode="&#x151;" horiz-adv-x="598" 
d="M265 580l122 149h118l-157 -149h-83zM430 580l122 149h119l-158 -149h-83zM433 0h-250l-93 113l55 314l112 96h249l94 -114l-56 -314zM225 70h172l65 55l48 273l-45 55h-173l-64 -55l-48 -273z" />
    <glyph glyph-name="uni020F" unicode="&#x20f;" horiz-adv-x="598" 
d="M256 580l14 79l65 55h151l57 -70l-11 -64h-61l9 49l-21 26h-103l-31 -26l-8 -49h-61zM433 0h-250l-93 113l55 314l112 96h249l94 -114l-56 -314zM225 70h172l65 55l48 273l-45 55h-173l-64 -55l-48 -273z" />
    <glyph glyph-name="omacron" unicode="&#x14d;" horiz-adv-x="598" 
d="M219 580l11 67h354l-12 -67h-353zM433 0h-250l-93 113l55 314l112 96h249l94 -114l-56 -314zM225 70h172l65 55l48 273l-45 55h-173l-64 -55l-48 -273z" />
    <glyph glyph-name="uni01EB" unicode="&#x1eb;" horiz-adv-x="598" 
d="M364 -161l-54 66l9 51l51 44h-187l-93 113l55 314l112 96h249l94 -114l-56 -314l-169 -145l-4 -24l21 -25h28l-11 -62h-45zM225 70h172l65 55l48 273l-45 55h-173l-64 -55l-48 -273z" />
    <glyph glyph-name="oslash" unicode="&#xf8;" horiz-adv-x="598" 
d="M90 113l55 314l112 96h249l94 -114l-56 -314l-111 -95h-250zM180 125l5 -7l280 335h-173l-64 -55zM224 70h173l65 55l48 273l-6 7z" />
    <glyph glyph-name="oslashacute" unicode="&#x1ff;" horiz-adv-x="598" 
d="M355 580l122 149h118l-157 -149h-83zM90 113l55 314l112 96h249l94 -114l-56 -314l-111 -95h-250zM180 125l5 -7l280 335h-173l-64 -55zM224 70h173l65 55l48 273l-6 7z" />
    <glyph glyph-name="otilde" unicode="&#xf5;" horiz-adv-x="598" 
d="M423 580l-59 69h-41l-43 -36l-6 -31h-54l14 70l63 55h101l60 -70h37l43 37l6 31h53l-13 -71l-63 -54h-98zM433 0h-250l-93 113l55 314l112 96h249l94 -114l-56 -314zM225 70h172l65 55l48 273l-45 55h-173l-64 -55l-48 -273z" />
    <glyph glyph-name="uni022D" unicode="&#x22d;" horiz-adv-x="598" 
d="M248 739l12 67h354l-12 -67h-354zM423 580l-59 69h-41l-43 -36l-6 -31h-54l14 70l63 55h101l60 -70h37l43 37l6 31h53l-13 -71l-63 -54h-98zM433 0h-250l-93 113l55 314l112 96h249l94 -114l-56 -314zM225 70h172l65 55l48 273l-45 55h-173l-64 -55l-48 -273z" />
    <glyph glyph-name="oe" unicode="&#x153;" horiz-adv-x="953" 
d="M433 0h-250l-93 113l55 314l112 96h249l50 -61l70 61h235l93 -114l-31 -180h-355l-18 -101l45 -55h292l-13 -73h-322l-49 60zM225 70h172l64 54l48 274l-44 55h-173l-64 -55l-48 -273zM580 299h267l17 99l-44 55h-158l-64 -55z" />
    <glyph glyph-name="p" unicode="p" horiz-adv-x="617" 
d="M49 -187l125 710h88l-14 -80l86 80h200l87 -106l-55 -313l-122 -104h-186l-74 84l-47 -271h-88zM284 70h133l64 55l48 273l-44 55h-132l-122 -105l-31 -175z" />
    <glyph glyph-name="thorn" unicode="&#xfe;" horiz-adv-x="617" 
d="M49 -187l163 924h88l-52 -294l86 80h200l87 -106l-55 -313l-122 -104h-186l-74 84l-47 -271h-88zM284 70h133l64 55l48 273l-44 55h-132l-122 -105l-31 -175z" />
    <glyph glyph-name="q" unicode="q" horiz-adv-x="617" 
d="M415 -187l47 271l-88 -84h-193l-92 112l55 314l114 97h194l73 -84l15 84h88l-125 -710h-88zM356 70l123 105l30 173l-85 105h-132l-64 -55l-49 -273l45 -55h132z" />
    <glyph glyph-name="r" unicode="r" horiz-adv-x="406" 
d="M82 0l92 523h88l-16 -93l100 93h141l-16 -88h-129l-113 -98l-59 -337h-88z" />
    <glyph glyph-name="racute" unicode="&#x155;" horiz-adv-x="406" 
d="M290 580l122 149h118l-157 -149h-83zM82 0l92 523h88l-16 -93l100 93h141l-16 -88h-129l-113 -98l-59 -337h-88z" />
    <glyph glyph-name="rcaron" unicode="&#x159;" horiz-adv-x="406" 
d="M276 580l-84 141h72l62 -85h6l91 85h79l-125 -141h-101zM82 0l92 523h88l-16 -93l100 93h141l-16 -88h-129l-113 -98l-59 -337h-88z" />
    <glyph glyph-name="uni0157" unicode="&#x157;" horiz-adv-x="406" 
d="M82 0l92 523h88l-16 -93l100 93h141l-16 -88h-129l-113 -98l-59 -337h-88zM-4 -232l71 175h95l-112 -175h-54z" />
    <glyph glyph-name="uni0211" unicode="&#x211;" horiz-adv-x="406" 
d="M196 580l-103 149h105l70 -149h-72zM362 580l-103 149h106l69 -149h-72zM82 0l92 523h88l-16 -93l100 93h141l-16 -88h-129l-113 -98l-59 -337h-88z" />
    <glyph glyph-name="uni0213" unicode="&#x213;" horiz-adv-x="406" 
d="M191 580l14 79l65 55h151l57 -70l-11 -64h-61l9 49l-21 26h-103l-31 -26l-8 -49h-61zM82 0l92 523h88l-16 -93l100 93h141l-16 -88h-129l-113 -98l-59 -337h-88z" />
    <glyph glyph-name="s" unicode="s" horiz-adv-x="551" 
d="M82 0l13 73h277l55 48l11 63l-41 50h-191l-89 108l16 91l105 90h298l-13 -74h-253l-54 -45l-9 -51l40 -48h191l90 -111l-18 -103l-106 -91h-322z" />
    <glyph glyph-name="sacute" unicode="&#x15b;" horiz-adv-x="551" 
d="M330 580l122 149h119l-157 -149h-84zM82 0l13 73h277l55 48l11 63l-41 50h-191l-89 108l16 91l105 90h298l-13 -74h-253l-54 -45l-9 -51l40 -48h191l90 -111l-18 -103l-106 -91h-322z" />
    <glyph glyph-name="scaron" unicode="&#x161;" horiz-adv-x="551" 
d="M317 580l-84 141h71l62 -85h6l92 85h79l-125 -141h-101zM82 0l13 73h277l55 48l11 63l-41 50h-191l-89 108l16 91l105 90h298l-13 -74h-253l-54 -45l-9 -51l40 -48h191l90 -111l-18 -103l-106 -91h-322z" />
    <glyph glyph-name="scedilla" unicode="&#x15f;" horiz-adv-x="551" 
d="M188 -128l48 128h-154l13 73h277l55 48l11 63l-41 50h-191l-89 108l16 91l105 90h298l-13 -74h-253l-54 -45l-9 -51l40 -48h191l90 -111l-18 -103l-106 -91h-86l-62 -128h-68z" />
    <glyph glyph-name="scircumflex" unicode="&#x15d;" horiz-adv-x="551" 
d="M212 580l124 141h102l84 -141h-72l-62 84h-6l-92 -84h-78zM82 0l13 73h277l55 48l11 63l-41 50h-191l-89 108l16 91l105 90h298l-13 -74h-253l-54 -45l-9 -51l40 -48h191l90 -111l-18 -103l-106 -91h-322z" />
    <glyph glyph-name="uni0219" unicode="&#x219;" horiz-adv-x="551" 
d="M82 0l13 73h277l55 48l11 63l-41 50h-191l-89 108l16 91l105 90h298l-13 -74h-253l-54 -45l-9 -51l40 -48h191l90 -111l-18 -103l-106 -91h-322zM146 -232l70 175h96l-112 -175h-54z" />
    <glyph glyph-name="germandbls" unicode="&#xdf;" horiz-adv-x="653" 
d="M87 0l110 628l128 109h213l105 -128l-29 -163l-54 -47l81 -98l-34 -192l-128 -109h-231l15 81h193l65 55l27 158l-45 55h-193l14 80l155 1l49 42l22 129l-44 56l-158 -1l-65 -55l-105 -601h-91z" />
    <glyph glyph-name="t" unicode="t" horiz-adv-x="335" 
d="M184 0l-79 95l63 358h-55l12 70h57l45 134h65l-24 -134h112l-13 -70h-111l-58 -331l38 -49h87l-13 -73h-126z" />
    <glyph glyph-name="tbar" unicode="&#x167;" horiz-adv-x="335" 
d="M184 0l-79 95l26 152h-58l11 63h59l25 143h-55l12 70h57l45 134h65l-24 -134h112l-13 -70h-111l-25 -143h107l-11 -63h-107l-22 -125l38 -49h87l-13 -73h-126z" />
    <glyph glyph-name="tcaron" unicode="&#x165;" horiz-adv-x="335" 
d="M314 562l71 175h96l-113 -175h-54zM184 0l-79 95l63 358h-55l12 70h57l45 134h65l-24 -134h112l-13 -70h-111l-58 -331l38 -49h87l-13 -73h-126z" />
    <glyph glyph-name="uni0163" unicode="&#x163;" horiz-adv-x="335" 
d="M154 -128l48 128h-18l-79 95l63 358h-55l12 70h57l45 134h65l-24 -134h112l-13 -70h-111l-58 -331l38 -49h87l-13 -73h-26l-63 -128h-67z" />
    <glyph glyph-name="uni021B" unicode="&#x21b;" horiz-adv-x="335" 
d="M184 0l-79 95l63 358h-55l12 70h57l45 134h65l-24 -134h112l-13 -70h-111l-58 -331l38 -49h87l-13 -73h-126zM112 -232l70 175h96l-113 -175h-53z" />
    <glyph glyph-name="u" unicode="u" horiz-adv-x="620" 
d="M176 0l-86 105l74 418h88l-70 -397l43 -56h131l125 108l61 345h88l-92 -523h-88l15 86l-99 -86h-190z" />
    <glyph glyph-name="uacute" unicode="&#xfa;" horiz-adv-x="620" 
d="M368 580l122 149h119l-157 -149h-84zM176 0l-86 105l74 418h88l-70 -397l43 -56h131l125 108l61 345h88l-92 -523h-88l15 86l-99 -86h-190z" />
    <glyph glyph-name="ubreve" unicode="&#x16d;" horiz-adv-x="620" 
d="M334 580l-57 69l11 65h61l-9 -50l21 -25h103l31 25l8 50h61l-14 -79l-65 -55h-151zM176 0l-86 105l74 418h88l-70 -397l43 -56h131l125 108l61 345h88l-92 -523h-88l15 86l-99 -86h-190z" />
    <glyph glyph-name="ucircumflex" unicode="&#xfb;" horiz-adv-x="620" 
d="M250 580l124 141h102l84 -141h-72l-62 84h-6l-92 -84h-78zM176 0l-86 105l74 418h88l-70 -397l43 -56h131l125 108l61 345h88l-92 -523h-88l15 86l-99 -86h-190z" />
    <glyph glyph-name="uni0215" unicode="&#x215;" horiz-adv-x="620" 
d="M275 580l-104 149h106l70 -149h-72zM441 580l-103 149h105l70 -149h-72zM176 0l-86 105l74 418h88l-70 -397l43 -56h131l125 108l61 345h88l-92 -523h-88l15 86l-99 -86h-190z" />
    <glyph glyph-name="udieresis" unicode="&#xfc;" horiz-adv-x="620" 
d="M231 580l21 118h88l-21 -118h-88zM496 580l21 118h88l-21 -118h-88zM176 0l-86 105l74 418h88l-70 -397l43 -56h131l125 108l61 345h88l-92 -523h-88l15 86l-99 -86h-190z" />
    <glyph glyph-name="uni1EE5" unicode="&#x1ee5;" horiz-adv-x="620" 
d="M176 0l-86 105l74 418h88l-70 -397l43 -56h131l125 108l61 345h88l-92 -523h-88l15 86l-99 -86h-190zM236 -175l20 118h88l-20 -118h-88z" />
    <glyph glyph-name="ugrave" unicode="&#xf9;" horiz-adv-x="620" 
d="M355 580l-104 149h106l70 -149h-72zM176 0l-86 105l74 418h88l-70 -397l43 -56h131l125 108l61 345h88l-92 -523h-88l15 86l-99 -86h-190z" />
    <glyph glyph-name="uni1EE7" unicode="&#x1ee7;" horiz-adv-x="620" 
d="M376 580l10 58l76 57l4 25l-10 12h-38l-41 -35l-38 46l51 43h103l41 -52l-12 -69l-81 -58l-4 -27h-61zM176 0l-86 105l74 418h88l-70 -397l43 -56h131l125 108l61 345h88l-92 -523h-88l15 86l-99 -86h-190z" />
    <glyph glyph-name="uhorn" unicode="&#x1b0;" horiz-adv-x="714" 
d="M176 0l-86 105l74 418h88l-70 -397l43 -56h131l125 108l61 345h88l-12 -69h60l45 128h101l-98 -187h-118l-70 -395h-88l15 86l-99 -86h-190z" />
    <glyph glyph-name="uni1EE9" unicode="&#x1ee9;" horiz-adv-x="714" 
d="M368 580l122 149h119l-157 -149h-84zM176 0l-86 105l74 418h88l-70 -397l43 -56h131l125 108l61 345h88l-12 -69h60l45 128h101l-98 -187h-118l-70 -395h-88l15 86l-99 -86h-190z" />
    <glyph glyph-name="uni1EF1" unicode="&#x1ef1;" horiz-adv-x="714" 
d="M176 0l-86 105l74 418h88l-70 -397l43 -56h131l125 108l61 345h88l-12 -69h60l45 128h101l-98 -187h-118l-70 -395h-88l15 86l-99 -86h-190zM236 -175l20 118h88l-20 -118h-88z" />
    <glyph glyph-name="uni1EEB" unicode="&#x1eeb;" horiz-adv-x="714" 
d="M355 580l-104 149h106l70 -149h-72zM176 0l-86 105l74 418h88l-70 -397l43 -56h131l125 108l61 345h88l-12 -69h60l45 128h101l-98 -187h-118l-70 -395h-88l15 86l-99 -86h-190z" />
    <glyph glyph-name="uni1EED" unicode="&#x1eed;" horiz-adv-x="714" 
d="M376 580l10 58l76 57l4 25l-10 12h-38l-41 -35l-38 46l51 43h103l41 -52l-12 -69l-81 -58l-4 -27h-61zM176 0l-86 105l74 418h88l-70 -397l43 -56h131l125 108l61 345h88l-12 -69h60l45 128h101l-98 -187h-118l-70 -395h-88l15 86l-99 -86h-190z" />
    <glyph glyph-name="uni1EEF" unicode="&#x1eef;" horiz-adv-x="714" 
d="M437 580l-59 69h-41l-43 -36l-7 -31h-53l14 70l63 55h101l60 -70h36l43 37l7 31h53l-14 -71l-63 -54h-97zM176 0l-86 105l74 418h88l-70 -397l43 -56h131l125 108l61 345h88l-12 -69h60l45 128h101l-98 -187h-118l-70 -395h-88l15 86l-99 -86h-190z" />
    <glyph glyph-name="uhungarumlaut" unicode="&#x171;" horiz-adv-x="620" 
d="M278 580l122 149h119l-157 -149h-84zM444 580l122 149h118l-157 -149h-83zM176 0l-86 105l74 418h88l-70 -397l43 -56h131l125 108l61 345h88l-92 -523h-88l15 86l-99 -86h-190z" />
    <glyph glyph-name="uni0217" unicode="&#x217;" horiz-adv-x="620" 
d="M270 580l14 79l65 55h151l57 -70l-11 -64h-61l9 49l-21 26h-104l-30 -26l-9 -49h-60zM176 0l-86 105l74 418h88l-70 -397l43 -56h131l125 108l61 345h88l-92 -523h-88l15 86l-99 -86h-190z" />
    <glyph glyph-name="umacron" unicode="&#x16b;" horiz-adv-x="620" 
d="M232 580l12 67h354l-12 -67h-354zM176 0l-86 105l74 418h88l-70 -397l43 -56h131l125 108l61 345h88l-92 -523h-88l15 86l-99 -86h-190z" />
    <glyph glyph-name="uogonek" unicode="&#x173;" horiz-adv-x="620" 
d="M464 -161l-54 66l11 63l49 32h-20l15 86l-99 -86h-190l-86 105l74 418h88l-70 -397l43 -56h131l125 108l61 345h88l-93 -527l-60 -38l-5 -32l20 -25h28l-10 -62h-46z" />
    <glyph glyph-name="uring" unicode="&#x16f;" horiz-adv-x="620" 
d="M360 580l-56 68l13 74l63 54h97l56 -68l-13 -74l-64 -54h-96zM391 630h38l34 29l7 38l-24 29h-38l-34 -29l-7 -38zM176 0l-86 105l74 418h88l-70 -397l43 -56h131l125 108l61 345h88l-92 -523h-88l15 86l-99 -86h-190z" />
    <glyph glyph-name="utilde" unicode="&#x169;" horiz-adv-x="620" 
d="M437 580l-59 69h-41l-43 -36l-7 -31h-53l14 70l63 55h101l60 -70h36l43 37l7 31h53l-14 -71l-63 -54h-97zM176 0l-86 105l74 418h88l-70 -397l43 -56h131l125 108l61 345h88l-92 -523h-88l15 86l-99 -86h-190z" />
    <glyph glyph-name="v" unicode="v" horiz-adv-x="579" 
d="M232 0l-127 523h91l92 -435h23l245 435h104l-317 -523h-111z" />
    <glyph glyph-name="w" unicode="w" horiz-adv-x="838" 
d="M655 0h-122l-47 382l-185 -382h-121l-76 523h88l49 -435h22l194 435h97l41 -435h22l202 435h100z" />
    <glyph glyph-name="wacute" unicode="&#x1e83;" horiz-adv-x="838" 
d="M475 580l122 149h118l-157 -149h-83zM655 0h-122l-47 382l-185 -382h-121l-76 523h88l49 -435h22l194 435h97l41 -435h22l202 435h100z" />
    <glyph glyph-name="wcircumflex" unicode="&#x175;" horiz-adv-x="838" 
d="M356 580l125 141h101l84 -141h-71l-62 84h-6l-92 -84h-79zM655 0h-122l-47 382l-185 -382h-121l-76 523h88l49 -435h22l194 435h97l41 -435h22l202 435h100z" />
    <glyph glyph-name="wdieresis" unicode="&#x1e85;" horiz-adv-x="838" 
d="M338 580l20 118h88l-20 -118h-88zM603 580l21 118h88l-21 -118h-88zM655 0h-122l-47 382l-185 -382h-121l-76 523h88l49 -435h22l194 435h97l41 -435h22l202 435h100z" />
    <glyph glyph-name="wgrave" unicode="&#x1e81;" horiz-adv-x="838" 
d="M461 580l-103 149h106l69 -149h-72zM655 0h-122l-47 382l-185 -382h-121l-76 523h88l49 -435h22l194 435h97l41 -435h22l202 435h100z" />
    <glyph glyph-name="x" unicode="x" horiz-adv-x="558" 
d="M13 0l232 269l-139 254h96l120 -212h23l176 212h115l-229 -254l137 -269h-99l-116 226h-23l-175 -226h-118z" />
    <glyph glyph-name="y" unicode="y" horiz-adv-x="565" 
d="M133 -187l133 223h-33l-127 487h91l98 -400h23l225 400h104l-419 -710h-95z" />
    <glyph glyph-name="yacute" unicode="&#xfd;" horiz-adv-x="565" 
d="M345 580l122 149h119l-157 -149h-84zM133 -187l133 223h-33l-127 487h91l98 -400h23l225 400h104l-419 -710h-95z" />
    <glyph glyph-name="ycircumflex" unicode="&#x177;" horiz-adv-x="565" 
d="M226 580l125 141h102l84 -141h-72l-62 84h-6l-92 -84h-79zM133 -187l133 223h-33l-127 487h91l98 -400h23l225 400h104l-419 -710h-95z" />
    <glyph glyph-name="ydieresis" unicode="&#xff;" horiz-adv-x="565" 
d="M208 580l21 118h88l-21 -118h-88zM473 580l21 118h88l-21 -118h-88zM133 -187l133 223h-33l-127 487h91l98 -400h23l225 400h104l-419 -710h-95z" />
    <glyph glyph-name="uni1EF5" unicode="&#x1ef5;" horiz-adv-x="565" 
d="M133 -187l133 223h-33l-127 487h91l98 -400h23l225 400h104l-419 -710h-95zM448 -187l21 118h88l-21 -118h-88z" />
    <glyph glyph-name="ygrave" unicode="&#x1ef3;" horiz-adv-x="565" 
d="M332 580l-104 149h106l69 -149h-71zM133 -187l133 223h-33l-127 487h91l98 -400h23l225 400h104l-419 -710h-95z" />
    <glyph glyph-name="uni1EF7" unicode="&#x1ef7;" horiz-adv-x="565" 
d="M353 580l10 58l76 57l4 25l-10 12h-38l-41 -35l-38 46l51 43h103l41 -52l-12 -69l-81 -58l-5 -27h-60zM133 -187l133 223h-33l-127 487h91l98 -400h23l225 400h104l-419 -710h-95z" />
    <glyph glyph-name="uni0233" unicode="&#x233;" horiz-adv-x="565" 
d="M209 580l12 67h354l-12 -67h-354zM133 -187l133 223h-33l-127 487h91l98 -400h23l225 400h104l-419 -710h-95z" />
    <glyph glyph-name="uni1EF9" unicode="&#x1ef9;" horiz-adv-x="565" 
d="M414 580l-60 69h-40l-43 -36l-7 -31h-53l14 70l63 55h101l60 -70h36l43 37l7 31h53l-14 -71l-63 -54h-97zM133 -187l133 223h-33l-127 487h91l98 -400h23l225 400h104l-419 -710h-95z" />
    <glyph glyph-name="z" unicode="z" horiz-adv-x="545" 
d="M53 0l16 90l389 359h-302l13 74h401l-17 -99l-378 -351h324l-13 -73h-433z" />
    <glyph glyph-name="zacute" unicode="&#x17a;" horiz-adv-x="545" 
d="M335 580l122 149h118l-157 -149h-83zM53 0l16 90l389 359h-302l13 74h401l-17 -99l-378 -351h324l-13 -73h-433z" />
    <glyph glyph-name="zcaron" unicode="&#x17e;" horiz-adv-x="545" 
d="M321 580l-84 141h72l62 -85h6l92 85h78l-124 -141h-102zM53 0l16 90l389 359h-302l13 74h401l-17 -99l-378 -351h324l-13 -73h-433z" />
    <glyph glyph-name="zdotaccent" unicode="&#x17c;" horiz-adv-x="545" 
d="M331 580l21 118h88l-21 -118h-88zM53 0l16 90l389 359h-302l13 74h401l-17 -99l-378 -351h324l-13 -73h-433z" />
    <glyph glyph-name="fi" unicode="&#xfb01;" horiz-adv-x="501" 
d="M86 0l80 453h-54l12 70h54l24 134l96 80h223l-13 -73h-170l-56 -49l-16 -92h112l-12 -70h-112l-80 -453h-88zM332 0l92 523h88l-92 -523h-88z" />
    <glyph glyph-name="fl" unicode="&#xfb02;" horiz-adv-x="526" 
d="M86 0l80 453h-54l12 70h54l24 134l96 80h140l-13 -73h-87l-56 -49l-16 -92h112l-12 -70h-112l-80 -453h-88zM356 0l130 737h88l-130 -737h-88z" />
    <glyph glyph-name="ordfeminine" unicode="&#xaa;" horiz-adv-x="464" 
d="M200 347l-62 76l18 104l80 69h189l7 45l-21 26h-185l12 70h217l62 -77l-56 -313h-77l9 53l-58 -53h-135zM244 416h92l58 49l12 67h-140l-33 -29l-11 -59z" />
    <glyph glyph-name="ordmasculine" unicode="&#xba;" horiz-adv-x="470" 
d="M203 347l-64 80l41 236l85 74h194l64 -80l-42 -236l-85 -74h-193zM245 416h127l33 28l34 196l-23 27h-127l-32 -27l-35 -196z" />
    <glyph glyph-name="zero" unicode="0" horiz-adv-x="666" 
d="M183 0l-94 115l93 528l110 94h321l94 -115l-93 -528l-109 -94h-322zM228 81h239l64 55l82 465l-45 55h-238l-65 -55l-81 -465z" />
    <glyph glyph-name="one" unicode="1" horiz-adv-x="424" 
d="M57 0l14 84h113l101 569h-101l15 84h192l-116 -653h113l-14 -84h-317z" />
    <glyph glyph-name="two" unicode="2" horiz-adv-x="634" 
d="M68 0l21 118l462 387l17 96l-45 56l-204 -1l-95 -82l-54 66l111 97h288l94 -115l-27 -153l-450 -379l-2 -6h395l-15 -84h-496z" />
    <glyph glyph-name="three" unicode="3" horiz-adv-x="644" 
d="M157 0l-87 106l65 55l67 -80h239l65 55l27 153l-46 58h-218l15 80h217l66 58l20 116l-44 56l-223 -1l-95 -80l-54 66l111 95h306l94 -115l-32 -180l-76 -66l53 -66l-38 -216l-110 -94h-322z" />
    <glyph glyph-name="four" unicode="4" horiz-adv-x="603" 
d="M387 0l26 150h-363l18 106l439 481h101l-89 -504h92l-15 -83h-92l-26 -150h-91zM170 233h258l62 351z" />
    <glyph glyph-name="five" unicode="5" horiz-adv-x="635" 
d="M473 0h-313l-87 106l65 55l67 -80h230l65 55l33 188l-45 55h-336l63 358h449l-14 -84h-359l-34 -193h277l93 -115l-44 -251z" />
    <glyph glyph-name="six" unicode="6" horiz-adv-x="673" 
d="M183 0l-94 115l93 528l110 94h332l87 -106l-65 -55l-67 80h-249l-65 -55l-35 -203l71 58h266l94 -115l-43 -247l-110 -94h-325zM228 81h242l64 55l33 185l-45 55h-231l-77 -68l-31 -172z" />
    <glyph glyph-name="seven" unicode="7" horiz-adv-x="521" 
d="M75 0l430 631l4 22h-374l15 84h474l-22 -125l-414 -612h-113z" />
    <glyph glyph-name="eight" unicode="8" horiz-adv-x="677" 
d="M183 0l-94 115l37 206l81 69l-37 46l36 207l111 94h284l94 -115l-33 -187l-53 -46l57 -69l-40 -226l-110 -94h-333zM298 429h233l46 42l23 130l-45 56l-201 -1l-65 -55l-23 -130zM228 81h250l64 55l28 157l-46 56h-248l-65 -56l-28 -157z" />
    <glyph glyph-name="nine" unicode="9" horiz-adv-x="669" 
d="M507 0h-322l-86 106l65 55l67 -80h238l64 55l35 197l-71 -56h-256l-95 115l44 251l111 94h315l94 -115l-93 -528zM286 358h218l81 71l30 172l-45 55h-232l-64 -55l-33 -188z" />
    <glyph glyph-name="uni00B9" unicode="&#xb9;" horiz-adv-x="280" 
d="M119 353l11 60h54l47 264h-50l11 60h113l-57 -324h55l-10 -60h-174z" />
    <glyph glyph-name="uni00B2" unicode="&#xb2;" horiz-adv-x="402" 
d="M133 353l13 74l228 191l7 39l-17 21h-93l-51 -43l-35 43l69 59h148l47 -57l-16 -89l-212 -178h186l-10 -60h-264z" />
    <glyph glyph-name="uni00B3" unicode="&#xb3;" horiz-adv-x="400" 
d="M168 353l-48 59l50 43l36 -43h110l25 21l12 68l-19 24h-111l10 59h111l28 24l8 49l-17 21h-102l-50 -42l-35 43l68 58h158l46 -57l-16 -92l-39 -34l27 -34l-19 -110l-67 -57h-166z" />
    <glyph glyph-name="uni2074" unicode="&#x2074;" horiz-adv-x="378" 
d="M280 353l12 72h-181l10 60l230 252h60l-44 -252h46l-11 -60h-46l-13 -72h-63zM303 485l25 140l-128 -140h103z" />
    <glyph glyph-name="fraction" unicode="&#x2044;" horiz-adv-x="746" 
d="M60 -69l-49 40l826 835l49 -40z" />
    <glyph glyph-name="onehalf" unicode="&#xbd;" horiz-adv-x="787" 
d="M53 -69l-49 40l826 835l50 -40zM166 353l11 60h55l46 264h-49l10 60h114l-57 -324h55l-11 -60h-174zM442 0l13 74l228 191l7 39l-18 21h-92l-51 -43l-35 43l69 59h148l47 -57l-16 -89l-212 -178h186l-10 -60h-264z" />
    <glyph glyph-name="onequarter" unicode="&#xbc;" horiz-adv-x="749" 
d="M50 -69l-49 40l826 835l49 -40zM163 353l11 60h55l46 264h-49l10 60h114l-57 -324h55l-11 -60h-174zM552 0l13 72h-182l11 59l230 253h60l-45 -252h46l-10 -60h-46l-13 -72h-64zM575 132l25 140l-127 -140h102z" />
    <glyph glyph-name="threequarters" unicode="&#xbe;" horiz-adv-x="820" 
d="M120 -69l-49 40l827 835l49 -40zM202 353l-48 59l50 43l36 -43h110l25 21l12 68l-19 24h-111l11 59h111l27 24l9 49l-18 21h-102l-50 -42l-35 43l69 58h157l47 -57l-16 -92l-40 -34l28 -34l-20 -110l-67 -57h-166zM624 0l13 72h-182l11 59l230 253h60l-44 -252h46
l-11 -60h-46l-13 -72h-64zM648 132l24 140l-127 -140h103z" />
    <glyph glyph-name="period" unicode="." horiz-adv-x="225" 
d="M63 0l21 118h88l-21 -118h-88z" />
    <glyph glyph-name="comma" unicode="," horiz-adv-x="225" 
d="M4 -110l80 228h88l-117 -228h-51z" />
    <glyph glyph-name="colon" unicode=":" horiz-adv-x="225" 
d="M135 404l20 119h88l-20 -119h-88zM63 0l21 118h88l-21 -118h-88z" />
    <glyph glyph-name="semicolon" unicode=";" horiz-adv-x="225" 
d="M135 404l20 119h88l-20 -119h-88zM4 -110l80 228h88l-117 -228h-51z" />
    <glyph glyph-name="ellipsis" unicode="&#x2026;" horiz-adv-x="632" 
d="M470 0l21 118h88l-21 -118h-88zM63 0l21 118h88l-21 -118h-88zM265 0l21 118h88l-21 -118h-88z" />
    <glyph glyph-name="exclam" unicode="!" horiz-adv-x="251" 
d="M124 199l88 538h88l-102 -538h-74zM82 0l20 118h88l-20 -118h-88z" />
    <glyph glyph-name="exclamdown" unicode="&#xa1;" horiz-adv-x="251" 
d="M152 404l21 119h88l-21 -119h-88zM43 -214l102 537h73l-87 -537h-88z" />
    <glyph glyph-name="question" unicode="?" horiz-adv-x="549" 
d="M251 199l23 130l221 163l19 109l-44 56l-173 -1l-96 -81l-49 60l119 102h254l86 -105l-31 -176l-236 -169l-15 -88h-78zM211 0l21 118h88l-21 -118h-88z" />
    <glyph glyph-name="questiondown" unicode="&#xbf;" horiz-adv-x="546" 
d="M341 405l21 118h88l-21 -118h-88zM136 -214l-86 104l31 177l235 168l16 88h78l-23 -129l-222 -164l-19 -109l45 -55h173l96 81l49 -60l-119 -101h-254z" />
    <glyph glyph-name="periodcentered" unicode="&#xb7;" horiz-adv-x="251" 
d="M137 310l21 118h88l-21 -118h-88z" />
    <glyph glyph-name="bullet" unicode="&#x2022;" horiz-adv-x="401" 
d="M192 248l-55 66l18 105l79 67h105l55 -67l-19 -105l-78 -66h-105z" />
    <glyph glyph-name="asterisk" unicode="*" horiz-adv-x="417" 
d="M216 429l-53 47l89 88l-104 32l33 62l101 -40l18 119h72l-27 -115l116 41l10 -70l-120 -31l57 -91l-65 -41l-42 98z" />
    <glyph glyph-name="numbersign" unicode="#" horiz-adv-x="768" 
d="M196 0l36 117h-130l15 84h142l39 123h-131l15 84h142l36 115h89l-36 -115h126l35 115h89l-36 -115h131l-15 -84h-142l-39 -123h131l-15 -84h-143l-37 -117h-88l36 117h-125l-37 -117h-88zM348 201h125l39 123h-125z" />
    <glyph glyph-name="slash" unicode="/" horiz-adv-x="427" 
d="M-6 -109l458 846h92l-458 -846h-92z" />
    <glyph glyph-name="backslash" unicode="\" horiz-adv-x="428" 
d="M304 -109l-160 846h92l159 -846h-91z" />
    <glyph glyph-name="parenleft" unicode="(" horiz-adv-x="351" 
d="M204 -187l-128 156l125 706l158 135h101l-13 -73h-41l-125 -106l-113 -638l88 -107h41l-12 -73h-81z" />
    <glyph glyph-name="parenright" unicode=")" horiz-adv-x="350" 
d="M0 -187l13 73h42l125 107l112 638l-87 106h-42l13 73h81l127 -156l-124 -706l-158 -135h-102z" />
    <glyph glyph-name="braceleft" unicode="{" horiz-adv-x="435" 
d="M225 -187l-73 92l59 336l-28 34h-53l13 73h53l40 34l63 358l81 70h174l-13 -73h-114l-48 -42l-59 -335l-57 -48l40 -49l-59 -335l33 -42h114l-12 -73h-154z" />
    <glyph glyph-name="braceright" unicode="}" horiz-adv-x="435" 
d="M-10 -187l13 73h115l48 42l59 335l57 49l-40 48l59 335l-33 42h-115l13 73h154l73 -91l-59 -337l28 -34h53l-13 -73h-53l-40 -34l-63 -358l-81 -70h-175z" />
    <glyph glyph-name="bracketleft" unicode="[" horiz-adv-x="347" 
d="M49 -187l176 997h232l-13 -73h-144l-150 -851h144l-13 -73h-232z" />
    <glyph glyph-name="bracketright" unicode="]" horiz-adv-x="347" 
d="M0 -187l13 73h144l150 851h-144l13 73h232l-176 -997h-232z" />
    <glyph glyph-name="hyphen" unicode="-" horiz-adv-x="457" 
d="M109 257l13 74h330l-13 -74h-330z" />
    <glyph glyph-name="uni00AD" unicode="&#xad;" horiz-adv-x="630" 
d="M102 257l13 74h330l-13 -74h-330z" />
    <glyph glyph-name="endash" unicode="&#x2013;" horiz-adv-x="589" 
d="M97 232l13 73h477l-13 -73h-477z" />
    <glyph glyph-name="emdash" unicode="&#x2014;" horiz-adv-x="826" 
d="M97 232l13 73h714l-13 -73h-714z" />
    <glyph glyph-name="uni2010" unicode="&#x2010;" horiz-adv-x="630" 
d="M102 257l13 74h330l-13 -74h-330z" />
    <glyph glyph-name="underscore" unicode="_" horiz-adv-x="540" 
d="M-14 -158l12 74h514l-13 -74h-513z" />
    <glyph glyph-name="quotesinglbase" unicode="&#x201a;" horiz-adv-x="247" 
d="M41 -124l75 228h100l-114 -228h-61z" />
    <glyph glyph-name="quotedblbase" unicode="&#x201e;" horiz-adv-x="397" 
d="M189 -124l75 228h100l-114 -228h-61zM38 -124l75 228h100l-114 -228h-61z" />
    <glyph glyph-name="quotedblleft" unicode="&#x201c;" horiz-adv-x="391" 
d="M292 509l114 228h61l-75 -228h-100zM134 509l114 228h61l-75 -228h-100z" />
    <glyph glyph-name="quotedblright" unicode="&#x201d;" horiz-adv-x="391" 
d="M301 509l75 228h100l-114 -228h-61zM143 509l75 228h100l-114 -228h-61z" />
    <glyph glyph-name="quoteleft" unicode="&#x2018;" horiz-adv-x="234" 
d="M139 509l114 228h61l-75 -228h-100z" />
    <glyph glyph-name="quoteright" unicode="&#x2019;" horiz-adv-x="233" 
d="M138 509l75 228h100l-114 -228h-61z" />
    <glyph glyph-name="guillemotleft" unicode="&#xab;" horiz-adv-x="561" 
d="M223 0l-148 262l240 261h104l-240 -261l148 -262h-104zM440 0l-148 262l240 261h104l-240 -261l148 -262h-104z" />
    <glyph glyph-name="guillemotright" unicode="&#xbb;" horiz-adv-x="577" 
d="M337 0h-104l240 262l-148 261h104l148 -261zM120 0h-104l240 262l-148 261h104l148 -261z" />
    <glyph glyph-name="guilsinglleft" unicode="&#x2039;" horiz-adv-x="360" 
d="M223 0l-148 262l240 261h104l-240 -261l148 -262h-104z" />
    <glyph glyph-name="guilsinglright" unicode="&#x203a;" horiz-adv-x="351" 
d="M120 0h-104l240 262l-148 261h104l148 -261z" />
    <glyph glyph-name="quotedbl" unicode="&#x22;" horiz-adv-x="339" 
d="M158 509l25 228h85l-56 -228h-54zM307 509l24 228h85l-56 -228h-53z" />
    <glyph glyph-name="quotesingle" unicode="'" horiz-adv-x="191" 
d="M158 509l25 228h85l-56 -228h-54z" />
    <glyph glyph-name="uni27E8" unicode="&#x27e8;" horiz-adv-x="399" 
d="M238 -187l-103 499l279 498h104l-280 -498l104 -499h-104z" />
    <glyph glyph-name="uni27E9" unicode="&#x27e9;" horiz-adv-x="398" 
d="M92 -186h-104l281 499l-105 498h104l104 -498z" />
    <glyph glyph-name="uni00A0" unicode="&#xa0;" horiz-adv-x="222" 
 />
    <glyph glyph-name="uni20B5" unicode="&#x20b5;" horiz-adv-x="647" 
d="M265 -110l20 110h-102l-94 115l93 528l110 94h123l19 110h88l-19 -110h128l86 -105l-65 -56l-66 80h-97l-102 -575h105l96 81l54 -67l-112 -95h-157l-20 -110h-88zM228 81h71l102 575h-71l-65 -55l-81 -465z" />
    <glyph glyph-name="cent" unicode="&#xa2;" horiz-adv-x="559" 
d="M252 0l19 110h-68l-93 115l55 313l111 94h87l18 105h73l-18 -105h81l82 -101l-12 -72h-88l9 51l-41 53h-44l-67 -380h178l-13 -73h-178l-19 -110h-72zM244 183h40l67 380h-38l-66 -58l-47 -267z" />
    <glyph glyph-name="colonmonetary" unicode="&#x20a1;" horiz-adv-x="647" 
d="M178 -110l28 110h-23l-94 115l93 528l110 94h102l28 110h61l-28 -110h67l28 110h60l-28 -110h49l86 -105l-65 -56l-66 80h-25l-147 -575h78l96 81l54 -67l-112 -95h-136l-28 -110h-61l28 110h-66l-29 -110h-60zM287 81h67l147 575h-67zM227 82l147 574h-44l-65 -55
l-81 -465z" />
    <glyph glyph-name="currency" unicode="&#xa4;" horiz-adv-x="568" 
d="M134 81l-51 62l69 59l-17 21l28 158l30 26l-49 58l62 53l49 -59l31 27h167l18 -22l70 59l51 -63l-69 -58l16 -21l-28 -158l-29 -26l48 -59l-61 -52l-49 59l-32 -27h-167l-18 22zM272 191h91l65 55l19 112l-45 55h-91l-64 -55l-19 -112z" />
    <glyph glyph-name="dollar" unicode="$" horiz-adv-x="658" 
d="M265 -110l19 110h-203l15 84h203l45 257h-114l-94 116l33 188l109 92h136l20 110h88l-20 -110h179l-15 -84h-179l-41 -232h103l94 -115l-37 -213l-108 -93h-126l-19 -110h-88zM275 421h83l41 232h-83l-65 -55l-21 -122zM387 84h72l64 55l26 147l-45 55h-72z" />
    <glyph glyph-name="dong" unicode="&#x20ab;" horiz-adv-x="614" 
d="M182 0l-92 112l55 314l114 97h195l72 -83l24 136h-165l12 73h165l16 88h88l-16 -88h66l-12 -73h-66l-102 -576h-88l15 83l-88 -83h-193zM357 70l122 104l30 174l-84 105h-132l-64 -55l-49 -273l45 -55h132zM45 -158l12 74h477l-13 -74h-476z" />
    <glyph glyph-name="Euro" unicode="&#x20ac;" horiz-adv-x="728" 
d="M611 0h-347l-94 115l28 160h-86l13 73h86l12 70h-86l13 73h86l27 152l110 94h339l86 -105l-65 -56l-66 80h-256l-65 -55l-19 -110h271l-13 -73h-271l-12 -70h223l-13 -73h-223l-24 -139l44 -55h264l96 81l54 -67z" />
    <glyph glyph-name="florin" unicode="&#x192;" horiz-adv-x="310" 
d="M-49 -113l13 73h72l58 50l78 443h-54l12 70h54l22 125l105 89h133l-13 -73h-85l-58 -50l-16 -91h112l-12 -70h-112l-84 -477l-105 -89h-120z" />
    <glyph glyph-name="franc" unicode="&#x20a3;" horiz-adv-x="641" 
d="M150 0l25 141h-87l13 73h87l92 523h476l-15 -84h-384l-42 -238h337l-15 -83h-337l-21 -118h152l-13 -73h-151l-25 -141h-92z" />
    <glyph glyph-name="uni20B2" unicode="&#x20b2;" horiz-adv-x="711" 
d="M266 -110l20 110h-103l-94 115l93 528l110 94h123l20 110h88l-20 -110h145l86 -105l-65 -56l-66 80h-273l-65 -55l-81 -465l44 -55h215l140 113l20 113h-169l14 80h246l-68 -387h-77l15 84l-105 -84h-85l-20 -110h-88z" />
    <glyph glyph-name="uni20AD" unicode="&#x20ad;" horiz-adv-x="708" 
d="M138 0l66 376h-76l13 73h76l51 288h91l-50 -288h93l306 288h117l-302 -288h217l-13 -73h-225l207 -376h-103l-210 376h-100l-67 -376h-91z" />
    <glyph glyph-name="lira" unicode="&#x20a4;" horiz-adv-x="675" 
d="M63 0l15 84h83l30 172h-76l13 74h76l11 63h-76l13 73h76l31 176l112 95h272l85 -105l-64 -56l-67 80l-188 1l-66 -57l-24 -134h245l-13 -73h-245l-11 -63h245l-13 -74h-245l-31 -172h388l-15 -84h-561z" />
    <glyph glyph-name="uni20BA" unicode="&#x20ba;" horiz-adv-x="590" 
d="M147 0l61 346l-89 -29l15 82l89 30l12 68l-89 -29l14 82l89 29l28 158h91l-22 -126l205 68l-14 -83l-205 -67l-12 -68l205 68l-15 -83l-205 -68l-52 -297h138l65 55l36 207h91l-44 -249l-110 -94h-282z" />
    <glyph glyph-name="uni20BC" unicode="&#x20bc;" 
d="M68 0l100 566l110 94h141l14 77h88l-14 -77h120l95 -115l-96 -545h-91l92 524l-45 55h-89l-102 -579h-88l102 579h-89l-64 -55l-93 -524h-91z" />
    <glyph glyph-name="uni20A6" unicode="&#x20a6;" horiz-adv-x="789" 
d="M139 0l45 256h-76l13 74h76l11 63h-76l13 73h76l48 271h118l103 -271h185l48 271h91l-48 -271h76l-13 -73h-76l-11 -63h75l-12 -74h-76l-45 -256h-109l-97 256h-202l-46 -256h-91zM313 466h86l-44 116h-22zM288 330h163l-24 63h-127zM542 330h109l11 63h-144zM616 134
l22 122h-69z" />
    <glyph glyph-name="peseta" unicode="&#x20a7;" horiz-adv-x="735" 
d="M139 0l82 463h-76l13 74h76l35 200h380l93 -115l-15 -85h76l-13 -74h-76l-17 -95l-109 -94h-309l-49 -274h-91zM325 537h311l11 64l-44 56l-257 -1zM293 355h257l64 55l9 53h-311z" />
    <glyph glyph-name="uni20B1" unicode="&#x20b1;" horiz-adv-x="738" 
d="M139 0l70 395h-76l13 74h76l12 72h-75l12 74h76l22 122h380l93 -115l-1 -7h76l-13 -74h-76l-13 -72h76l-13 -74h-76l-5 -27l-109 -94h-309l-49 -274h-91zM339 615h298l-34 42l-257 -1zM313 469h311l13 72h-311zM293 355h256l48 40h-297z" />
    <glyph glyph-name="uni20BD" unicode="&#x20bd;" horiz-adv-x="662" 
d="M139 0l25 139h-76l13 74h76l12 68h-76l13 74h76l67 382h380l93 -114l-43 -245l-113 -97h-306l-12 -68h298l-13 -74h-298l-25 -139h-91zM293 355h257l64 55l33 191l-44 56l-257 -1z" />
    <glyph glyph-name="uni20B9" unicode="&#x20b9;" horiz-adv-x="607" 
d="M346 0l-208 292l14 81h217l65 55l13 77h-271l13 73h271l5 31l-44 55h-217l13 73h464l-13 -73h-136l28 -35l-9 -51h102l-13 -73h-102l-21 -119l-110 -94h-155l211 -292h-117z" />
    <glyph glyph-name="sterling" unicode="&#xa3;" horiz-adv-x="676" 
d="M63 0l15 84h83l42 239h-83l15 83h82l42 236l111 95h273l85 -105l-64 -56l-67 80l-188 1l-66 -56l-35 -195h246l-15 -83h-245l-42 -239h387l-15 -84h-561z" />
    <glyph glyph-name="uni20A9" unicode="&#x20a9;" horiz-adv-x="948" 
d="M249 0l-19 282h-116l13 73h98l-5 70h-81l13 73h63l-17 239h94l29 -650h23l252 650h82l23 -650h22l260 650h100l-101 -239h57l-13 -73h-75l-29 -70h91l-13 -73h-109l-119 -282h-146l-22 531l-211 -531h-144z" />
    <glyph glyph-name="yen" unicode="&#xa5;" horiz-adv-x="633" 
d="M271 0l33 191h-191l13 73h191l6 31l-16 39h-168l13 73h125l-134 330h96l138 -336h20l239 336h113l-250 -330h126l-13 -73h-169l-29 -39l-6 -31h191l-13 -73h-191l-33 -191h-91z" />
    <glyph glyph-name="uni2219" unicode="&#x2219;" horiz-adv-x="225" 
d="M118 309l21 119h88l-21 -119h-88z" />
    <glyph glyph-name="uni2052" unicode="&#x2052;" horiz-adv-x="677" 
d="M119 -13l-52 49l622 714l51 -48zM239 619l21 118h88l-21 -118h-88zM471 0l21 118h88l-21 -118h-88z" />
    <glyph glyph-name="uni2215" unicode="&#x2215;" horiz-adv-x="748" 
d="M60 -69l-49 40l827 835l49 -40z" />
    <glyph glyph-name="plus" unicode="+" horiz-adv-x="626" 
d="M297 119l38 213h-213l13 73h212l38 213h73l-37 -213h212l-12 -73h-213l-38 -213h-73z" />
    <glyph glyph-name="minus" unicode="&#x2212;" horiz-adv-x="626" 
d="M122 332l13 73h498l-12 -73h-499z" />
    <glyph glyph-name="multiply" unicode="&#xd7;" horiz-adv-x="644" 
d="M134 109l-46 57l244 207l-167 203l56 47l166 -202l250 212l46 -57l-249 -212l171 -207l-56 -48l-171 208z" />
    <glyph glyph-name="divide" unicode="&#xf7;" horiz-adv-x="655" 
d="M385 534l17 99h74l-18 -99h-73zM122 332l13 73h528l-13 -73h-528zM309 105l18 99h73l-18 -99h-73z" />
    <glyph glyph-name="equal" unicode="=" horiz-adv-x="668" 
d="M148 442l13 73h528l-13 -73h-528zM109 222l13 73h528l-13 -73h-528z" />
    <glyph glyph-name="notequal" unicode="&#x2260;" horiz-adv-x="668" 
d="M166 37l-52 48l114 137h-119l13 73h168l123 147h-265l13 73h313l159 189l51 -48l-118 -141h123l-13 -73h-171l-123 -147h268l-13 -73h-316z" />
    <glyph glyph-name="greater" unicode="&#x3e;" horiz-adv-x="431" 
d="M134 109l-42 52l243 207l-170 208l61 52l213 -260z" />
    <glyph glyph-name="less" unicode="&#x3c;" horiz-adv-x="431" 
d="M335 109l-213 259l305 260l42 -52l-243 -208l170 -207z" />
    <glyph glyph-name="greaterequal" unicode="&#x2265;" horiz-adv-x="445" 
d="M148 109l-42 52l243 207l-170 208l61 51l213 -259zM63 0l13 73h305l-13 -73h-305z" />
    <glyph glyph-name="lessequal" unicode="&#x2264;" horiz-adv-x="445" 
d="M332 110l-213 259l305 259l42 -52l-243 -207l170 -208zM77 0l13 73h305l-13 -73h-305z" />
    <glyph glyph-name="plusminus" unicode="&#xb1;" horiz-adv-x="639" 
d="M300 134l37 212h-213l13 74h213l38 212h73l-38 -212h213l-13 -74h-213l-37 -212h-73zM63 0l13 73h499l-13 -73h-499z" />
    <glyph glyph-name="approxequal" unicode="&#x2248;" horiz-adv-x="587" 
d="M395 402l-70 84h-49l-52 -43l-7 -38h-64l16 85l74 65h123l71 -84h42l52 43l8 38h63l-16 -86l-76 -64h-115zM357 182l-71 84h-48l-52 -43l-8 -38h-64l16 85l75 65h122l71 -84h42l52 43l8 38h64l-17 -86l-75 -64h-115z" />
    <glyph glyph-name="asciitilde" unicode="~" horiz-adv-x="586" 
d="M377 297l-71 84h-48l-52 -43l-8 -38h-64l17 85l74 65h123l70 -84h43l51 43l8 38h64l-17 -86l-75 -64h-115z" />
    <glyph glyph-name="logicalnot" unicode="&#xac;" horiz-adv-x="608" 
d="M527 275l31 174h-422l13 74h495l-44 -248h-73z" />
    <glyph glyph-name="asciicircum" unicode="^" horiz-adv-x="587" 
d="M174 523l200 214h98l125 -214h-91l-95 126h-7l-139 -126h-91z" />
    <glyph glyph-name="uni00B5" unicode="&#xb5;" horiz-adv-x="620" 
d="M44 -187l125 710h88l-70 -397l43 -56h130l126 108l61 345h88l-92 -523h-88l15 86l-99 -86h-190l-13 16l-36 -203h-88z" />
    <glyph glyph-name="percent" unicode="%" horiz-adv-x="866" 
d="M132 -23l-48 54l781 729l47 -54zM236 399l-86 106l22 126l124 106h148l86 -106l-22 -126l-123 -106h-149zM292 472h62l68 58l13 76l-47 58h-62l-68 -58l-13 -76zM552 0l-85 106l22 126l123 106h148l86 -106l-22 -126l-123 -106h-149zM608 73h63l67 58l14 76l-48 58h-62
l-68 -58l-13 -76z" />
    <glyph glyph-name="perthousand" unicode="&#x2030;" horiz-adv-x="1261" 
d="M132 -23l-48 54l781 729l47 -54zM236 399l-86 106l22 126l124 106h148l86 -106l-22 -126l-123 -106h-149zM292 472h62l68 58l13 76l-47 58h-62l-68 -58l-13 -76zM947 0l-86 106l22 126l124 106h148l86 -106l-22 -126l-124 -106h-148zM552 0l-85 106l22 126l123 106h148
l86 -106l-22 -126l-123 -106h-149zM1003 73h62l68 58l13 76l-47 58h-62l-68 -58l-13 -76zM608 73h63l67 58l14 76l-48 58h-62l-68 -58l-13 -76z" />
    <glyph glyph-name="lozenge" unicode="&#x25ca;" horiz-adv-x="557" 
d="M234 0l-159 349l7 39l282 349h89l159 -349l-7 -39l-282 -349h-89zM295 92l222 276l-125 277l-222 -277z" />
    <glyph glyph-name="at" unicode="@" horiz-adv-x="1037" 
d="M184 -154l-117 144l110 624l143 123h620l118 -144l-79 -449l-110 -94h-125l-63 78l-94 -78h-162l-102 125l42 242l125 106h148l62 -74l13 74h88l-61 -348l42 -51h55l60 50l69 395l-77 95h-521l-111 -95l-98 -555l77 -95h568l117 101l50 -61l-131 -113h-656zM464 124h96
l97 78l28 162l-71 85h-93l-73 -62l-35 -201z" />
    <glyph glyph-name="ampersand" unicode="&#x26;" horiz-adv-x="777" 
d="M658 -7l-74 90l-89 -83h-294l-94 114l26 146l123 105l67 35l-96 117l22 125l111 95h186l94 -114l-22 -125l-108 -91l-62 -33l143 -176l113 104l52 -62l-113 -103l76 -93zM398 434l56 29l82 69l13 77l-45 55h-108l-65 -55l-13 -77zM242 73h213l78 72l-160 195l-61 -31
l-97 -83l-18 -98z" />
    <glyph glyph-name="paragraph" unicode="&#xb6;" horiz-adv-x="755" 
d="M348 -124l67 378h-196l-86 105l48 272l123 105h505l-13 -73h-77l-139 -787h-88l139 787h-56l-139 -787h-88z" />
    <glyph glyph-name="section" unicode="&#xa7;" horiz-adv-x="621" 
d="M93 -66l13 73h296l55 49l12 64l-37 44h-171l-121 140l22 125l72 62l-51 58l18 100l103 88h324l-13 -73h-272l-49 -44l-9 -51l43 -51h140l132 -151l-21 -122l-62 -54l43 -51l-22 -123l-95 -83h-350zM307 237h140l50 44l12 66l-86 97h-129l-49 -44l-13 -76z" />
    <glyph glyph-name="copyright" unicode="&#xa9;" horiz-adv-x="941" 
d="M206 -26l-117 143l87 497l146 123h536l118 -144l-87 -495l-145 -124h-538zM252 48h453l103 88l77 440l-72 88h-452l-103 -88l-78 -440zM415 131l-97 119l40 232l118 101h197l83 -105l-59 -49l-64 80h-125l-75 -64l-31 -176l52 -64h130l98 86l49 -57l-114 -103h-202z" />
    <glyph glyph-name="registered" unicode="&#xae;" horiz-adv-x="702" 
d="M218 175l-105 129l57 323l129 110h346l105 -129l-57 -323l-129 -110h-346zM259 241h269l90 77l48 276l-63 77h-268l-90 -77l-49 -276zM288 304l53 300h185l47 -58l-18 -101l-51 -44l37 -97h-68l-37 97h-61l-17 -97h-70zM384 452h85l30 26l7 44l-20 26h-85z" />
    <glyph glyph-name="trademark" unicode="&#x2122;" horiz-adv-x="801" 
d="M405 364l65 373h108l35 -233l116 233h116l-66 -373h-73l44 252l-132 -252h-52l-44 252l-44 -252h-73zM190 364l54 307h-99l12 66h270l-12 -66h-98l-54 -307h-73z" />
    <glyph glyph-name="degree" unicode="&#xb0;" horiz-adv-x="399" 
d="M192 417l-80 98l22 124l114 98h126l80 -98l-22 -124l-114 -98h-126zM223 485h88l56 48l15 88l-39 48h-88l-56 -48l-15 -88z" />
    <glyph glyph-name="minute" unicode="&#x2032;" horiz-adv-x="233" 
d="M138 509l75 228h100l-114 -228h-61z" />
    <glyph glyph-name="second" unicode="&#x2033;" horiz-adv-x="391" 
d="M301 509l75 228h100l-114 -228h-61zM143 509l75 228h100l-114 -228h-61z" />
    <glyph glyph-name="bar" unicode="|" horiz-adv-x="261" 
d="M62 -139l167 949h88l-167 -949h-88z" />
    <glyph glyph-name="brokenbar" unicode="&#xa6;" horiz-adv-x="261" 
d="M166 451l63 359h88l-63 -359h-88zM62 -139l63 359h88l-63 -359h-88z" />
    <glyph glyph-name="dagger" unicode="&#x2020;" horiz-adv-x="414" 
d="M156 -40l84 473h-150l13 73h150l31 176h88l-31 -176h150l-13 -73h-150l-84 -473h-88z" />
    <glyph glyph-name="daggerdbl" unicode="&#x2021;" horiz-adv-x="413" 
d="M156 -40l31 176h-150l13 73h150l39 224h-150l13 73h150l31 176h88l-31 -176h150l-13 -73h-150l-39 -224h150l-13 -73h-150l-31 -176h-88z" />
    <glyph glyph-name="uni2116" unicode="&#x2116;" horiz-adv-x="1125" 
d="M87 0l130 737h117l225 -592l7 1l104 591h91l-130 -737h-108l-220 582h-22l-103 -582h-91zM858 398l-86 106l22 126l124 107h148l86 -107l-22 -126l-124 -106h-148zM914 472h62l68 57l13 76l-47 58h-62l-68 -58l-13 -76zM744 271l13 73h331l-13 -73h-331z" />
    <glyph glyph-name="uni02BC" unicode="&#x2bc;" horiz-adv-x="226" 
d="M138 509l75 228h100l-114 -228h-61z" />
    <glyph glyph-name="uni02BA" unicode="&#x2ba;" horiz-adv-x="386" 
d="M295 509l75 228h100l-114 -228h-61zM137 509l75 228h100l-114 -228h-61z" />
    <glyph glyph-name="uni02B9" unicode="&#x2b9;" horiz-adv-x="233" 
d="M138 509l75 228h100l-114 -228h-61z" />
    <glyph glyph-name="uni0308" unicode="&#x308;" horiz-adv-x="0" 
d="M-113 794l21 118h88l-21 -118h-88zM-379 794l21 118h88l-21 -118h-88z" />
    <glyph glyph-name="uni0307" unicode="&#x307;" horiz-adv-x="0" 
d="M-156 794l20 118h88l-20 -118h-88z" />
    <glyph glyph-name="gravecomb" unicode="&#x300;" horiz-adv-x="0" 
d="M-118 794l-103 149h105l70 -149h-72z" />
    <glyph glyph-name="acutecomb" unicode="&#x301;" horiz-adv-x="0" 
d="M-198 794l122 149h118l-157 -149h-83z" />
    <glyph glyph-name="uni030B" unicode="&#x30b;" horiz-adv-x="0" 
d="M-375 794l122 149h119l-157 -149h-84zM-209 794l122 149h118l-157 -149h-83z" />
    <glyph glyph-name="uni0302" unicode="&#x302;" horiz-adv-x="0" 
d="M-341 794l125 141h101l85 -141h-72l-62 85h-6l-92 -85h-79z" />
    <glyph glyph-name="uni030C" unicode="&#x30c;" horiz-adv-x="0" 
d="M-251 794l-84 141h71l63 -84h5l92 84h79l-125 -141h-101z" />
    <glyph glyph-name="uni0306" unicode="&#x306;" horiz-adv-x="0" 
d="M-244 794l-58 69l12 65h60l-9 -49l22 -26h103l30 26l9 49h60l-14 -79l-65 -55h-150z" />
    <glyph glyph-name="uni030A" unicode="&#x30a;" horiz-adv-x="0" 
d="M-189 794l-56 68l13 75l64 54h97l55 -68l-13 -75l-63 -54h-97zM-157 844h37l35 30l6 37l-24 30h-37l-35 -30l-7 -37z" />
    <glyph glyph-name="tildecomb" unicode="&#x303;" horiz-adv-x="0" 
d="M-177 794l-59 70h-41l-43 -36l-6 -32h-53l13 71l63 54h102l59 -69h37l43 36l6 31h53l-13 -71l-63 -54h-98z" />
    <glyph glyph-name="uni0304" unicode="&#x304;" horiz-adv-x="0" 
d="M-379 794l12 67h354l-12 -67h-354z" />
    <glyph glyph-name="hookabovecomb" unicode="&#x309;" horiz-adv-x="0" 
d="M-195 794l10 59l76 56l4 25l-10 12h-38l-41 -35l-38 46l51 44h103l41 -52l-12 -69l-81 -58l-4 -28h-61z" />
    <glyph glyph-name="uni030F" unicode="&#x30f;" horiz-adv-x="0" 
d="M-97 794l-104 149h106l70 -149h-72zM-264 794l-103 149h106l69 -149h-72z" />
    <glyph glyph-name="uni0311" unicode="&#x311;" horiz-adv-x="0" 
d="M-303 794l14 79l65 55h151l57 -69l-11 -65h-61l9 50l-21 25h-103l-31 -25l-8 -50h-61z" />
    <glyph glyph-name="uni0312" unicode="&#x312;" horiz-adv-x="0" 
d="M-214 794l113 175h54l-71 -175h-96z" />
    <glyph glyph-name="uni031B" unicode="&#x31b;" horiz-adv-x="0" 
d="M-207 600l11 58h67l46 128h101l-98 -186h-127z" />
    <glyph glyph-name="dotbelowcomb" unicode="&#x323;" horiz-adv-x="0" 
d="M-137 -175l20 118h88l-20 -118h-88z" />
    <glyph glyph-name="uni0326" unicode="&#x326;" horiz-adv-x="0" 
d="M-158 -232l71 175h96l-113 -175h-54z" />
    <glyph glyph-name="uni0327" unicode="&#x327;" horiz-adv-x="0" 
d="M-131 -128l49 128h81l-62 -128h-68z" />
    <glyph glyph-name="uni0328" unicode="&#x328;" horiz-adv-x="0" 
d="M-85 -161l-54 66l12 66l43 29h73l-60 -40l-7 -34l21 -25h28l-10 -62h-46z" />
    <glyph glyph-name="uni0335" unicode="&#x335;" horiz-adv-x="0" 
d="M-334 257l13 74h301l-13 -74h-301z" />
    <glyph glyph-name="acute" unicode="&#xb4;" horiz-adv-x="255" 
d="M-33 794l122 149h118l-157 -149h-83z" />
    <glyph glyph-name="breve" unicode="&#x2d8;" horiz-adv-x="336" 
d="M-59 794l-58 69l12 65h60l-8 -49l21 -26h103l30 26l9 49h61l-14 -79l-65 -55h-151z" />
    <glyph glyph-name="caron" unicode="&#x2c7;" horiz-adv-x="370" 
d="M119 794l-84 141h71l63 -84h5l92 84h79l-125 -141h-101z" />
    <glyph glyph-name="cedilla" unicode="&#xb8;" horiz-adv-x="164" 
d="M56 -128l48 128h82l-63 -128h-67z" />
    <glyph glyph-name="circumflex" unicode="&#x2c6;" horiz-adv-x="370" 
d="M34 794l125 141h101l84 -141h-71l-62 85h-6l-92 -85h-79z" />
    <glyph glyph-name="dieresis" unicode="&#xa8;" horiz-adv-x="412" 
d="M290 794l21 118h88l-21 -118h-88zM25 794l21 118h88l-21 -118h-88z" />
    <glyph glyph-name="dotaccent" unicode="&#x2d9;" horiz-adv-x="243" 
d="M81 794l21 118h88l-21 -118h-88z" />
    <glyph glyph-name="grave" unicode="`" horiz-adv-x="255" 
d="M102 794l-105 149h119l69 -149h-83z" />
    <glyph glyph-name="hungarumlaut" unicode="&#x2dd;" horiz-adv-x="408" 
d="M203 794l122 149h119l-158 -149h-83zM37 794l122 149h119l-157 -149h-84z" />
    <glyph glyph-name="macron" unicode="&#xaf;" horiz-adv-x="412" 
d="M32 794l12 67h353l-12 -67h-353z" />
    <glyph glyph-name="ogonek" unicode="&#x2db;" horiz-adv-x="174" 
d="M106 -161l-53 66l11 66l44 29h73l-61 -40l-6 -34l21 -25h28l-11 -62h-46z" />
    <glyph glyph-name="ring" unicode="&#x2da;" horiz-adv-x="279" 
d="M91 794l-56 68l13 75l63 54h97l56 -68l-13 -75l-64 -54h-96zM122 844h37l35 30l7 37l-25 30h-37l-35 -30l-6 -37z" />
    <glyph glyph-name="tilde" unicode="&#x2dc;" horiz-adv-x="412" 
d="M239 794l-59 70h-41l-43 -36l-7 -32h-53l14 71l63 54h101l60 -69h36l43 36l7 31h53l-14 -71l-62 -54h-98z" />
    <glyph glyph-name="uniE0FF" unicode="&#xe0ff;" horiz-adv-x="600" 
 />
    <glyph glyph-name="uniEFFD" unicode="&#xeffd;" horiz-adv-x="600" 
 />
    <glyph glyph-name="uniF000" unicode="&#xf000;" horiz-adv-x="600" 
 />
    </font>
</defs>
</svg>
